<?xml version="1.0" encoding="utf-8"?>
<!-- Generator: Adobe Illustrator 16.0.0, SVG Export Plug-In . SVG Version: 6.00 Build 0)  -->
<!DOCTYPE svg PUBLIC "-//W3C//DTD SVG 1.1//EN" "http://www.w3.org/Graphics/SVG/1.1/DTD/svg11.dtd">
<svg version="1.1" id="Capa_1" xmlns="http://www.w3.org/2000/svg" xmlns:xlink="http://www.w3.org/1999/xlink" x="0px" y="0px"
	 width="200px" height="200px" viewBox="0 0 200 200" enable-background="new 0 0 200 200" xml:space="preserve">
<path fill="#FAC832" d="M180.274,48.511c8.216,17.586-0.23,58.574-1.938,82.207l-3.092,62.866l-91.623,1.2l-2.4-30.141
	l-35.402,2.169l-0.462-41.957H17.108l27.971-54.65c0-36.372,33.002-66.051,69.42-66.051
	C143.395,4.154,171.366,22.709,180.274,48.511z M154.75,72.929l0.508-10.247l-7.57-1.662c-0.6-3.554-1.846-7.201-3.785-10.478
	l4.754-6.047l-6.83-7.57l-6.463,4.108c-3.092-2.262-6.462-3.832-10.062-4.801l-0.923-7.662l-10.293-0.508l-1.708,7.478
	c-3.6,0.6-7.2,1.893-10.478,3.831l-6.047-4.754l-7.569,6.877l4.154,6.462c-2.262,3.093-3.831,6.508-4.8,10.062l-7.662,0.923
	L79.467,69.19l7.478,1.708c0.6,3.554,1.846,7.2,3.785,10.478l-4.754,6.093l6.831,7.57l6.462-4.108
	c3.093,2.262,6.462,3.831,10.062,4.8l0.924,7.662l10.293,0.508l1.708-7.662c3.601-0.6,7.2-1.893,10.524-3.785l6.092,4.8l7.57-6.877
	l-4.154-6.462c2.262-3.092,3.831-6.462,4.801-10.062L154.75,72.929z M138.779,144.842c0.508-1.016,0.185-2.262-0.738-2.908
	l-2.585-1.846c0.23-1.432,0.323-2.908,0.23-4.339l2.354-1.339c0.969-0.508,1.061-1.569,0.691-2.631l-1.984-5.77
	c-0.369-1.062-1.062-1.846-2.215-1.708l-2.816,0.415c-0.83-1.153-1.707-2.308-2.77-3.277l0.924-3c0.322-1.061-0.186-2.262-1.2-2.77
	l-5.539-2.723c-1.016-0.462-2.262-0.185-2.907,0.738l-1.801,2.539c-1.385-0.23-2.861-0.323-4.293-0.23l-1.431-2.678
	c-0.554-0.969-1.708-1.431-2.815-1.062l-5.77,1.985c-1.062,0.369-1.754,1.43-1.523,2.538l0.461,3c-1.153,0.831-2.262,1.8-3.23,2.862
	l-3-0.877c-1.062-0.324-2.262,0.184-2.724,1.199l-2.723,5.539c-0.461,1.016-0.185,2.262,0.739,2.908l2.492,1.801
	c-0.23,1.43-0.323,2.907-0.23,4.338l-2.724,1.477c-0.969,0.555-1.477,1.755-1.107,2.816l1.984,5.77
	c0.37,1.062,1.477,1.754,2.585,1.523l3.046-0.508c0.831,1.2,1.8,2.262,2.862,3.277l-0.877,3c-0.323,1.062,0.185,2.215,1.2,2.723
	l5.539,2.678c1.016,0.508,2.262,0.185,2.908-0.738l1.799-2.492c1.432,0.23,2.908,0.322,4.34,0.276l1.338,2.354
	c0.555,0.969,1.615,1.061,2.678,0.738l5.77-1.984c1.062-0.37,1.846-1.062,1.662-2.217l-0.416-2.861c1.2-0.83,2.308-1.707,3.323-2.77
	l3.001,0.924c1.107,0.322,2.262-0.186,2.769-1.201L138.779,144.842z"/>
<g>
	<path fill="#F05064" d="M155.258,62.682l-0.508,10.247l-7.662,0.923c-1.016,3.6-2.539,6.97-4.801,10.062l4.154,6.462l-7.57,6.877
		l-6.092-4.8c-3.324,1.893-6.924,3.185-10.524,3.785l-1.708,7.662l-10.293-0.508l-0.924-7.662c-3.554-1.016-6.969-2.585-10.062-4.8
		l-6.462,4.108l-6.831-7.57l4.754-6.046c-1.939-3.324-3.185-6.924-3.785-10.478l-7.478-1.708l0.508-10.247l7.662-0.923
		c1.016-3.554,2.539-6.97,4.8-10.062l-4.154-6.462l7.57-6.877l6.047,4.754c3.323-1.938,6.878-3.185,10.478-3.831l1.708-7.478
		l10.293,0.508l0.923,7.662c3.555,1.015,6.971,2.585,10.062,4.8l6.463-4.108l6.83,7.57l-4.754,6
		c1.939,3.323,3.186,6.923,3.785,10.478L155.258,62.682z M126.271,75.791c5.4-4.939,5.862-13.339,0.923-18.74
		c-4.938-5.447-13.293-5.862-18.74-0.923c-5.4,4.939-5.861,13.293-0.922,18.74C112.424,80.268,120.824,80.683,126.271,75.791z"/>
	<path fill="#F05064" d="M127.24,57.004c4.938,5.4,4.477,13.847-0.924,18.74c-5.446,4.939-13.848,4.478-18.74-0.923
		c-4.938-5.447-4.477-13.847,0.924-18.74C113.9,51.188,122.301,51.558,127.24,57.004z"/>
</g>
<path fill="#FDC75B" d="M124.793,133.303c1.847,5.354-1.016,11.216-6.369,13.016c-5.354,1.801-11.17-1.015-13.017-6.369
	s1.016-11.217,6.37-13.017C117.131,125.086,122.993,127.948,124.793,133.303z M116.947,141.934c2.907-0.969,4.477-4.199,3.508-7.107
	c-1.016-2.955-4.201-4.523-7.154-3.508c-2.908,1.015-4.479,4.199-3.508,7.154C110.808,141.38,113.992,142.903,116.947,141.934z"/>
<path d="M137.625,142.396l-2.584-1.847c0.23-1.431,0.322-2.907,0.23-4.338l2.354-1.339c0.97-0.508,1.062-1.569,0.692-2.631
	l-1.984-5.771c-0.37-1.061-1.062-1.846-2.216-1.707l-2.815,0.415c-0.831-1.153-1.708-2.308-2.77-3.276l0.923-3.001
	c0.323-1.062-0.185-2.262-1.199-2.77l-5.539-2.724c-1.016-0.461-2.262-0.184-2.908,0.739l-1.801,2.538
	c-1.385-0.23-2.861-0.322-4.292-0.23l-1.431-2.678c-0.555-0.969-1.708-1.43-2.816-1.061l-5.77,1.984
	c-1.062,0.369-1.754,1.431-1.523,2.539l0.462,3c-1.153,0.83-2.262,1.8-3.231,2.861l-3-0.877c-1.062-0.322-2.262,0.185-2.723,1.2
	l-2.724,5.539c-0.461,1.016-0.185,2.262,0.739,2.907l2.492,1.801c-0.23,1.431-0.323,2.908-0.23,4.339l-2.724,1.478
	c-0.969,0.553-1.477,1.754-1.107,2.814l1.985,5.77c0.369,1.062,1.477,1.755,2.584,1.523l3.046-0.508
	c0.831,1.201,1.8,2.262,2.862,3.277l-0.877,3c-0.323,1.062,0.185,2.217,1.2,2.724l5.539,2.677c1.016,0.508,2.262,0.186,2.908-0.738
	l1.801-2.492c1.43,0.23,2.907,0.323,4.338,0.277l1.339,2.354c0.554,0.97,1.615,1.062,2.677,0.738l5.77-1.984
	c1.062-0.369,1.847-1.062,1.662-2.215l-0.416-2.862c1.201-0.831,2.309-1.708,3.324-2.77l3,0.923c1.107,0.323,2.262-0.185,2.77-1.199
	l2.723-5.539C138.825,144.288,138.502,143.042,137.625,142.396z M117.962,146.78c-5.354,1.847-11.17-1.015-13.017-6.37
	c-1.846-5.354,1.016-11.216,6.37-13.016c5.354-1.846,11.17,1.016,13.017,6.369C126.178,139.118,123.316,144.934,117.962,146.78z"/>
<path d="M112.839,131.779c-2.908,1.016-4.478,4.2-3.509,7.154c1.016,2.908,4.201,4.478,7.155,3.462
	c2.907-0.97,4.478-4.2,3.508-7.108C118.932,132.333,115.746,130.764,112.839,131.779z"/>
<path d="M114.039,0c-18.694,0-37.48,7.523-51.512,20.632C48.311,33.926,40.325,51.235,40.002,69.559L12.539,123.24
	c-0.738,1.431-0.646,3.139,0.185,4.478c0.831,1.384,2.308,2.169,3.923,2.169h23.633l0.416,37.388c0,1.246,0.554,2.493,1.477,3.323
	c0.923,0.877,2.169,1.293,3.416,1.246l30.879-1.893l2.031,25.71c0.185,2.4,2.215,4.339,4.616,4.339h0.046l91.622-1.338
	c2.447-0.047,4.432-2.031,4.57-4.432l3.139-62.867c0.416-5.814,1.246-12.831,2.17-20.262c2.814-23.218,6-49.574-0.555-63.975
	C174.505,19.848,145.103,0,114.039,0z M175.521,110.086c-0.923,7.523-1.754,14.678-2.216,20.725c0,0.046,0,0.046,0,0.092
	l-2.954,58.574l-82.991,1.107l-2.077-25.803c-0.185-2.399-2.215-4.246-4.616-4.246c-0.092,0-0.185,0-0.277,0l-30.556,1.893
	l-0.416-37.11c-0.046-2.538-2.077-4.569-4.616-4.569H24.216l24.51-47.958c0.323-0.646,0.508-1.338,0.508-2.077
	c0-16.109,6.97-31.479,19.617-43.295c12.324-11.54,28.802-18.14,45.188-18.14c13.108,0,26.586,4.154,37.849,11.724
	s19.617,18.048,23.587,29.541c0.046,0.138,0.092,0.277,0.184,0.461C181.197,62.866,178.059,89.038,175.521,110.086z"/>
<path d="M155.766,58.62l-4.662-1.016c-0.555-2.077-1.293-4.108-2.216-6.093l2.907-3.693c1.385-1.754,1.293-4.292-0.184-5.954
	l-6.832-7.57c-1.523-1.662-4.016-1.985-5.908-0.785l-3.969,2.539c-1.847-1.107-3.785-2.031-5.862-2.815l-0.601-4.754
	c-0.276-2.215-2.123-3.923-4.338-4.062l-10.293-0.508c-2.217-0.092-4.247,1.385-4.709,3.6l-1.062,4.616
	c-2.077,0.554-4.153,1.292-6.093,2.216l-3.692-2.908c-1.754-1.385-4.292-1.338-5.954,0.185l-7.616,6.924
	c-1.662,1.523-1.985,4.016-0.785,5.908l2.539,3.923c-1.107,1.846-2.031,3.785-2.77,5.862l-4.708,0.6
	c-2.215,0.277-3.923,2.123-4.062,4.339L74.39,69.421c-0.092,2.215,1.385,4.246,3.6,4.708l4.616,1.062
	c0.554,2.077,1.292,4.154,2.216,6.139l-2.908,3.693c-1.385,1.754-1.292,4.292,0.185,5.954l6.832,7.57
	c1.523,1.662,4.016,1.985,5.908,0.785l3.969-2.539c1.847,1.108,3.785,2.031,5.862,2.815l0.601,4.754
	c0.276,2.217,2.123,3.924,4.338,4.062l10.293,0.508c0.093,0,0.139,0,0.23,0c2.17,0,4.017-1.477,4.523-3.601l1.062-4.754
	c2.076-0.554,4.107-1.292,6.093-2.216l3.739,2.954c1.754,1.385,4.292,1.339,5.953-0.185l7.57-6.877
	c1.662-1.523,1.984-4.016,0.785-5.908l-2.539-3.923c1.107-1.846,2.031-3.785,2.815-5.862l4.708-0.6
	c2.216-0.277,3.924-2.124,4.062-4.339l0.508-10.247C159.504,61.112,157.98,59.082,155.766,58.62z M149.857,69.282l-3.785,0.461
	c-1.847,0.231-3.369,1.523-3.877,3.324c-0.924,3.277-2.262,6.093-4.108,8.585c-1.108,1.523-1.2,3.601-0.185,5.216l2.031,3.185
	l-1.801,1.615l-3-2.4c-1.477-1.2-3.555-1.339-5.17-0.369c-2.815,1.615-5.908,2.723-8.954,3.231c-1.847,0.323-3.37,1.708-3.785,3.554
	l-0.831,3.831l-2.539-0.138l-0.461-3.785c-0.23-1.846-1.523-3.369-3.323-3.877c-3.185-0.923-6.093-2.308-8.585-4.108
	c-1.523-1.108-3.601-1.2-5.17-0.139l-3.185,2.031l-1.615-1.8l2.354-2.954c1.154-1.477,1.338-3.554,0.369-5.17
	c-1.616-2.723-2.723-5.815-3.231-8.908c-0.323-1.846-1.708-3.323-3.508-3.739l-3.738-0.831l0.138-2.539l3.785-0.461
	c1.846-0.231,3.369-1.523,3.877-3.323c0.923-3.277,2.262-6.093,4.108-8.631c1.108-1.523,1.2-3.601,0.139-5.216l-2.031-3.185
	l1.8-1.615l2.954,2.354c1.477,1.2,3.554,1.338,5.216,0.369c2.723-1.616,5.815-2.723,8.908-3.231
	c1.846-0.323,3.323-1.708,3.738-3.554l0.831-3.693l2.538,0.139l0.463,3.785c0.23,1.846,1.522,3.369,3.322,3.877
	c3.186,0.923,6.094,2.308,8.586,4.108c1.523,1.108,3.6,1.2,5.17,0.139l3.184-2.031l1.616,1.8l-2.354,2.954
	c-1.153,1.477-1.338,3.554-0.369,5.17c1.615,2.769,2.724,5.815,3.231,8.908c0.323,1.893,1.708,3.37,3.601,3.785l3.738,0.831
	L149.857,69.282z"/>
<path d="M104.899,53.127c-7.292,6.601-7.847,17.956-1.246,25.249c3.508,3.877,8.401,5.862,13.294,5.862
	c4.292,0,8.584-1.523,12-4.616c7.293-6.647,7.893-17.955,1.246-25.248C123.594,47.081,112.238,46.527,104.899,53.127z
	 M122.717,72.79c-3.555,3.185-9.047,2.908-12.232-0.6c-3.185-3.554-2.908-9.047,0.6-12.232c1.662-1.477,3.739-2.216,5.816-2.216
	c2.354,0,4.708,0.97,6.416,2.862l0,0C126.547,64.113,126.271,69.605,122.717,72.79z"/>
</svg>
