<?xml version="1.0" encoding="utf-8"?>
<!-- Generator: Adobe Illustrator 16.0.0, SVG Export Plug-In . SVG Version: 6.00 Build 0)  -->
<!DOCTYPE svg PUBLIC "-//W3C//DTD SVG 1.1//EN" "http://www.w3.org/Graphics/SVG/1.1/DTD/svg11.dtd">
<svg version="1.1" id="Capa_1" xmlns="http://www.w3.org/2000/svg" xmlns:xlink="http://www.w3.org/1999/xlink" x="0px" y="0px"
	 width="200px" height="200px" viewBox="0 0 200 200" enable-background="new 0 0 200 200" xml:space="preserve">
<path fill="#FAC832" d="M194.95,63.7V169c0,11.05-8.95,20-20,20H25.05c-11.05,0-20-8.95-20-20V63.7H194.95z"/>
<g>
	<path fill="#F05064" d="M194.95,31v32.75H5.05V31c0-11.05,8.95-20,20-20h149.9C186,11,194.95,19.95,194.95,31z M96,37.35
		c0-5.1-4.15-9.25-9.25-9.25s-9.25,4.15-9.25,9.25s4.15,9.25,9.25,9.25C91.9,46.6,96,42.45,96,37.35z M66.8,37.35
		c0-5.1-4.15-9.25-9.25-9.25c-5.1,0-9.25,4.15-9.25,9.25s4.15,9.25,9.25,9.25C62.65,46.6,66.8,42.45,66.8,37.35z M37.55,37.35
		c0-5.1-4.15-9.25-9.25-9.25c-5.1,0-9.25,4.15-9.25,9.25s4.15,9.25,9.25,9.25C33.4,46.6,37.55,42.45,37.55,37.35z"/>
	<path fill="#F05064" d="M86.75,28.1c5.1,0,9.25,4.15,9.25,9.25s-4.15,9.25-9.25,9.25s-9.25-4.15-9.25-9.25S81.65,28.1,86.75,28.1z"
		/>
	<path fill="#F05064" d="M57.55,28.1c5.1,0,9.25,4.15,9.25,9.25s-4.15,9.25-9.25,9.25c-5.1,0-9.25-4.15-9.25-9.25
		S52.4,28.1,57.55,28.1z"/>
	<path fill="#F05064" d="M28.3,28.1c5.1,0,9.25,4.15,9.25,9.25S33.4,46.6,28.3,46.6c-5.1,0-9.25-4.15-9.25-9.25S23.2,28.1,28.3,28.1
		z"/>
</g>
<path d="M200,31c0-13.8-11.2-25-25-25H25C11.2,6,0,17.2,0,31v138c0,13.8,11.2,25,25,25h150c13.8,0,25-11.2,25-25V31z M25.05,16
	h149.9C183.2,16,190,22.7,190,31v27.5H10V31C10,22.7,16.8,16,25.05,16z M174.95,184H25.05C16.8,184,10,177.3,10,169V68.5h180V169
	C190,177.3,183.2,184,174.95,184z"/>
<path d="M57.55,51.6c7.85,0,14.25-6.4,14.25-14.25S65.4,23.1,57.55,23.1c-7.85,0-14.25,6.4-14.25,14.25
	C43.25,45.2,49.65,51.6,57.55,51.6z M57.55,33.1c2.35,0,4.25,1.9,4.25,4.25s-1.9,4.25-4.25,4.25c-2.35,0-4.25-1.9-4.25-4.25
	C53.25,35,55.2,33.1,57.55,33.1z"/>
<path d="M86.75,51.6c7.85,0,14.25-6.4,14.25-14.25S94.6,23.1,86.75,23.1S72.5,29.5,72.5,37.35S78.9,51.6,86.75,51.6z M86.75,33.1
	C89.1,33.1,91,35,91,37.35s-1.9,4.25-4.25,4.25s-4.25-1.9-4.25-4.25S84.4,33.1,86.75,33.1z"/>
<path d="M28.3,51.6c7.85,0,14.25-6.4,14.25-14.25S36.15,23.1,28.3,23.1c-7.85,0-14.25,6.4-14.25,14.25S20.45,51.6,28.3,51.6z
	 M28.3,33.1c2.35,0,4.25,1.9,4.25,4.25s-1.9,4.25-4.25,4.25c-2.35,0-4.25-1.9-4.25-4.25S25.95,33.1,28.3,33.1z"/>
<path d="M80.5,100c-1.75-2.15-4.85-2.5-7.05-0.8l-27,21.6c-1.2,0.95-1.9,2.4-1.9,3.9s0.7,2.95,1.9,3.899l27,21.601
	c0.9,0.75,2,1.1,3.1,1.1c1.45,0,2.9-0.649,3.9-1.899c1.75-2.15,1.4-5.301-0.8-7.051l-22.1-17.699l22.1-17.7
	C81.9,105.3,82.25,102.2,80.5,100z"/>
<path d="M153.5,120.85l-27-21.6c-2.15-1.7-5.3-1.4-7.05,0.8c-1.75,2.15-1.4,5.3,0.8,7.05l22.1,17.7l-22.1,17.7
	c-2.15,1.75-2.5,4.85-0.8,7.05c1,1.25,2.45,1.9,3.899,1.9c1.101,0,2.2-0.351,3.101-1.101l27-21.6c1.2-0.95,1.899-2.4,1.899-3.9
	S154.65,121.75,153.5,120.85z"/>
<path d="M109.7,82.65c-2.7-0.7-5.4,0.95-6.101,3.6l-19.05,75c-0.7,2.7,0.95,5.4,3.6,6.1c0.4,0.101,0.85,0.15,1.25,0.15
	c2.25,0,4.25-1.5,4.85-3.75l19.05-75C114,86.05,112.35,83.35,109.7,82.65z"/>
</svg>
