<?xml version="1.0" encoding="utf-8"?>
<!-- Generator: Adobe Illustrator 16.0.0, SVG Export Plug-In . SVG Version: 6.00 Build 0)  -->
<!DOCTYPE svg PUBLIC "-//W3C//DTD SVG 1.1//EN" "http://www.w3.org/Graphics/SVG/1.1/DTD/svg11.dtd">
<svg version="1.1" id="Capa_1" xmlns="http://www.w3.org/2000/svg" xmlns:xlink="http://www.w3.org/1999/xlink" x="0px" y="0px"
	 width="200px" height="200px" viewBox="0 0 200 200" enable-background="new 0 0 200 200" xml:space="preserve">
<path fill="#F05064" d="M138.854,168.719v-20.854v-20.854V73.89h0.386h15.232c4.721,0,8.582,3.862,8.582,8.582v14.332h14.547
	c4.763,0,8.582,3.862,8.582,8.582v90.41h-47.329V168.719z"/>
<path fill="#FAC832" d="M138.854,168.719v27.076H57.584v-87.75V47.028c0-4.72,3.819-8.582,8.582-8.582h64.106
	c4.72,0,8.582,3.862,8.582,8.582V73.89v53.165v20.854V168.719L138.854,168.719z"/>
<path fill="#F05064" d="M57.584,108.045v87.75H13.817v-79.168c0-4.72,3.862-8.582,8.582-8.582h34.628H57.584z"/>
<path d="M13.817,200h172.367c2.359,0,4.377-1.846,4.377-4.205v-90.41c0-7.08-5.836-13.087-12.959-13.087h-10.256v-9.826
	c0-7.08-5.793-12.916-12.916-12.916h-11.113V47.028c0-7.08-5.964-13.087-13.044-13.087H104.27V4.291c0-2.36-1.932-4.291-4.291-4.291
	c-2.36,0-4.291,1.931-4.291,4.291v29.65H66.166c-7.08,0-12.958,6.007-12.958,13.087v56.854H22.398
	c-7.123,0-12.958,5.664-12.958,12.744v79.168C9.44,198.154,11.414,200,13.817,200z M154.43,78.138c2.361,0,4.334,1.974,4.334,4.334
	v14.332c0,2.36,1.889,4.077,4.248,4.077h14.547c2.359,0,4.377,2.146,4.377,4.505v86.033h-38.619v-18.451h21.197
	c2.36,0,4.291-1.931,4.291-4.291c0-2.359-1.931-4.291-4.291-4.291h-21.197v-12.443h21.197c2.36,0,4.291-1.931,4.291-4.291
	c0-2.359-1.931-4.291-4.291-4.291h-21.197v-12.014h21.197c2.36,0,4.291-1.932,4.291-4.291c0-2.36-1.931-4.291-4.291-4.291h-21.197
	V78.138H154.43z M66.166,42.523h64.106c2.36,0,4.462,2.146,4.462,4.505v144.39H61.789V47.028
	C61.789,44.668,63.763,42.523,66.166,42.523z M18.022,116.627c0-2.359,1.974-4.162,4.376-4.162h30.809v78.953H18.022V116.627z"/>
<path d="M30.251,132.633h11.671c2.36,0,4.291-1.932,4.291-4.291c0-2.36-1.931-4.291-4.291-4.291H30.251
	c-2.36,0-4.291,1.931-4.291,4.291C25.96,130.701,27.891,132.633,30.251,132.633z"/>
<path d="M41.922,144.646H30.251c-2.36,0-4.291,1.932-4.291,4.291c0,2.36,1.931,4.291,4.291,4.291h11.671
	c2.36,0,4.291-1.931,4.291-4.291C46.213,146.578,44.325,144.646,41.922,144.646z"/>
<path d="M41.922,165.673H30.251c-2.36,0-4.291,1.931-4.291,4.29c0,2.361,1.931,4.291,4.291,4.291h11.671
	c2.36,0,4.291-1.93,4.291-4.291C46.213,167.604,44.325,165.673,41.922,165.673z"/>
<path d="M77.666,84.832c2.36,0,4.291-1.931,4.291-4.291V67.196c0-2.36-1.931-4.291-4.291-4.291c-2.36,0-4.291,1.931-4.291,4.291
	v13.345C73.375,82.901,75.306,84.832,77.666,84.832z"/>
<path d="M98.691,84.832c2.359,0,4.291-1.931,4.291-4.291V67.196c0-2.36-1.932-4.291-4.291-4.291c-2.36,0-4.291,1.931-4.291,4.291
	v13.345C94.4,82.901,96.331,84.832,98.691,84.832z"/>
<path d="M119.287,84.832c2.361,0,4.291-1.931,4.291-4.291V67.196c0-2.36-1.93-4.291-4.291-4.291c-2.359,0-4.291,1.931-4.291,4.291
	v13.345C114.996,82.901,116.928,84.832,119.287,84.832z"/>
<path d="M77.666,126.539c2.36,0,4.291-1.931,4.291-4.291v-13.344c0-2.361-1.931-4.291-4.291-4.291c-2.36,0-4.291,1.93-4.291,4.291
	v13.344C73.375,124.608,75.306,126.539,77.666,126.539z"/>
<path d="M98.691,126.539c2.359,0,4.291-1.931,4.291-4.291v-13.344c0-2.361-1.932-4.291-4.291-4.291c-2.36,0-4.291,1.93-4.291,4.291
	v13.344C94.4,124.608,96.331,126.539,98.691,126.539z"/>
<path d="M119.287,126.539c2.361,0,4.291-1.931,4.291-4.291v-13.344c0-2.361-1.93-4.291-4.291-4.291c-2.359,0-4.291,1.93-4.291,4.291
	v13.344C114.996,124.608,116.928,126.539,119.287,126.539z"/>
<path d="M77.666,168.204c2.36,0,4.291-1.931,4.291-4.291v-13.345c0-2.359-1.931-4.291-4.291-4.291c-2.36,0-4.291,1.932-4.291,4.291
	v13.345C73.375,166.273,75.306,168.204,77.666,168.204z"/>
<path d="M98.691,168.204c2.359,0,4.291-1.931,4.291-4.291v-13.345c0-2.359-1.932-4.291-4.291-4.291c-2.36,0-4.291,1.932-4.291,4.291
	v13.345C94.4,166.273,96.331,168.204,98.691,168.204z"/>
<path d="M119.287,168.204c2.361,0,4.291-1.931,4.291-4.291v-13.345c0-2.359-1.93-4.291-4.291-4.291
	c-2.359,0-4.291,1.932-4.291,4.291v13.345C114.996,166.273,116.928,168.204,119.287,168.204z"/>
</svg>
