<?xml version="1.0" encoding="utf-8"?>
<!-- Generator: Adobe Illustrator 16.0.0, SVG Export Plug-In . SVG Version: 6.00 Build 0)  -->
<!DOCTYPE svg PUBLIC "-//W3C//DTD SVG 1.1//EN" "http://www.w3.org/Graphics/SVG/1.1/DTD/svg11.dtd">
<svg version="1.1" id="Capa_1" xmlns="http://www.w3.org/2000/svg" xmlns:xlink="http://www.w3.org/1999/xlink" x="0px" y="0px"
	 width="200px" height="200px" viewBox="0 0 200 200" enable-background="new 0 0 200 200" xml:space="preserve">
<path fill="#F05064" d="M167.619,91.448c16.432,9.75,27.443,27.695,27.443,48.204c0,30.973-25.09,56.062-56.062,56.062
	c-18.113,0-34.251-8.572-44.505-21.938c-7.271-9.455-11.599-21.307-11.599-34.124c0-30.974,25.089-56.062,56.062-56.062
	C149.465,83.589,159.256,86.405,167.619,91.448z"/>
<path fill="#FAC832" d="M167.703,64.804V91.28l-0.084,0.126c-8.363-5.001-18.154-7.859-28.619-7.859
	c-30.973,0-56.062,25.09-56.062,56.062c0,12.817,4.287,24.669,11.599,34.125l-0.126,0.084H18.008
	c-7.312,0-13.238-5.926-13.238-13.238V64.762h162.933V64.804z"/>
<g>
	<path fill="#F05064" d="M167.703,32.78v32.024H4.77V32.78c0-7.312,5.925-13.238,13.238-13.238h18.113v13.7h20.971v-13.7h58.08v13.7
		h20.971v-13.7h18.322C161.736,19.542,167.703,25.51,167.703,32.78z"/>
	<polygon fill="#F05064" points="136.143,19.542 136.143,33.242 115.129,33.242 115.129,19.542 115.129,4.329 136.143,4.329 	"/>
	<polygon fill="#F05064" points="57.092,19.542 57.092,33.242 36.121,33.242 36.121,19.542 36.121,4.329 57.092,4.329 	"/>
</g>
<path d="M171.779,89.178V32.78c0-9.624-7.732-17.23-17.314-17.23h-14.204V4.329c0-2.312-1.808-4.329-4.118-4.329h-20.971
	c-2.312,0-4.287,2.017-4.287,4.329v11.221H61.252V4.329C61.252,2.017,59.403,0,57.092,0H36.121c-2.312,0-4.287,2.017-4.287,4.329
	v11.221H18.008c-9.624,0-17.272,7.607-17.272,17.23v127.842c0,9.624,7.649,17.566,17.272,17.566h74.554
	C104.035,192.057,120.845,200,139,200c33.242,0,60.265-27.064,60.265-60.307c0-10.633-2.858-21.098-8.195-30.259
	C186.32,101.24,179.765,94.306,171.779,89.178z M119.248,8.405h12.607v20.592h-12.607V8.405z M40.24,8.405h12.607v20.592H40.24
	V8.405z M18.008,23.955h13.827v9.288c0,2.312,1.975,4.161,4.287,4.161h20.971c2.312,0,4.161-1.849,4.161-4.161v-9.288h49.59v9.288
	c0,2.312,1.976,4.161,4.286,4.161H136.1c2.312,0,4.119-1.849,4.119-4.161v-9.288h14.205c5,0,8.908,3.866,8.908,8.825v27.737H9.141
	V32.78C9.141,27.821,13.007,23.955,18.008,23.955z M9.141,160.622v-91.7h154.234v15.634c-7.564-3.404-15.928-5.211-24.459-5.211
	c-33.242,0-60.265,27.107-60.265,60.349c0,10.717,2.774,20.845,8.027,30.09h-68.67C13.007,169.783,9.141,165.623,9.141,160.622z
	 M139,191.511c-16.264,0-31.268-7.396-41.143-20.298l0,0c-7.019-9.078-10.717-20.005-10.717-31.562
	c0-28.62,23.282-51.86,51.86-51.86c9.371,0,18.533,2.521,26.477,7.271c7.605,4.497,13.952,10.926,18.406,18.575
	c4.581,7.859,6.977,16.854,6.977,26.015C190.859,168.271,167.577,191.511,139,191.511z"/>
<path d="M159.76,139.945h-19.499v-26.771c0-2.312-1.892-4.202-4.202-4.202c-2.312,0-4.203,1.891-4.203,4.202v30.89
	c0,2.311,1.934,4.286,4.287,4.286h23.617c2.312,0,4.203-1.892,4.203-4.202C163.963,141.836,162.072,139.945,159.76,139.945z"/>
</svg>
