<?xml version="1.0" encoding="utf-8"?>
<!-- Generator: Adobe Illustrator 16.0.0, SVG Export Plug-In . SVG Version: 6.00 Build 0)  -->
<!DOCTYPE svg PUBLIC "-//W3C//DTD SVG 1.1//EN" "http://www.w3.org/Graphics/SVG/1.1/DTD/svg11.dtd">
<svg version="1.1" id="Capa_1" xmlns="http://www.w3.org/2000/svg" xmlns:xlink="http://www.w3.org/1999/xlink" x="0px" y="0px"
	 width="200px" height="200px" viewBox="0 0 200 200" enable-background="new 0 0 200 200" xml:space="preserve">
<rect x="120.311" y="168.533" fill="#F05064" width="62.178" height="26.801"/>
<rect x="120.311" y="140.223" fill="#FAC832" width="62.178" height="28.311"/>
<rect x="120.311" y="112.578" fill="#F05064" width="62.178" height="27.688"/>
<path fill="#FAC832" d="M182.488,92.711v19.867h-62.178V83.822H173.6C178.488,83.822,182.488,87.822,182.488,92.711z"/>
<path fill="#F05064" d="M120.311,168.533v26.801h-7.91H86.711v-27.956c0-4.89-4-8.89-8.889-8.89H57.289c-4.934,0-8.889,4-8.889,8.89
	v27.956H17.511V58.667c0-4.889,4-8.889,8.889-8.889h6.533h69.2h9.289c4.889,0,8.889,4,8.889,8.889v25.156v28.756v27.688V168.533
	L120.311,168.533z M98.4,134.488V113.2H77.111v21.288H98.4z M98.4,89.778V68.489H77.111v21.289H98.4z M57.956,134.488V113.2H36.667
	v21.288H57.956z M57.956,89.778V68.489H36.667v21.289H57.956z"/>
<g>
	<path fill="#FAC832" d="M102.133,13.511v36.267h-69.2V13.511c0-4.889,4-8.889,8.889-8.889h51.422
		C98.178,4.622,102.133,8.622,102.133,13.511z"/>
	<rect x="77.111" y="113.2" fill="#FAC832" width="21.289" height="21.288"/>
	<rect x="77.111" y="68.489" fill="#FAC832" width="21.289" height="21.289"/>
	<path fill="#FAC832" d="M86.711,167.422v27.956H48.4v-27.956c0-4.889,3.956-8.889,8.889-8.889h20.533
		C82.711,158.533,86.711,162.533,86.711,167.422z"/>
	<rect x="36.667" y="113.2" fill="#FAC832" width="21.289" height="21.288"/>
	<rect x="36.667" y="68.489" fill="#FAC832" width="21.289" height="21.289"/>
</g>
<path d="M173.6,79.556h-48.711V58.667c0-7.333-6.089-13.333-13.467-13.333h-4.756V13.511C106.666,6.178,100.578,0,93.245,0H41.822
	c-7.333,0-13.378,6.178-13.378,13.511v31.822H26.4c-7.333,0-13.511,5.956-13.511,13.333v136.711c0,2.444,2.178,4.622,4.623,4.622
	H112.4h70.088c2.445,0,4.623-2.178,4.623-4.622v-22.355v-8.89v-19.422v-8.889v-18.8v-8.89V92.711
	C187.111,85.378,180.934,79.556,173.6,79.556z M52.889,167.422c0-2.444,1.911-4.311,4.4-4.311h20.533c2.444,0,4.4,1.866,4.4,4.311
	v23.689H52.889V167.422L52.889,167.422z M77.822,154.223H57.289c-7.333,0-13.289,5.866-13.289,13.199v23.689H21.778V58.667
	c0-2.444,2.178-4.444,4.622-4.444h85.022c2.445,0,4.578,2,4.578,4.444v49.466v8.89v18.8v8.889v19.422v8.89v18.089h-3.6H91.111
	v-23.689C91.111,160.089,85.156,154.223,77.822,154.223z M124.889,191.111v-18.223h53.334v18.223H124.889z M124.889,164v-19.111
	h53.334V164H124.889z M124.889,136v-19.111h53.334V136H124.889z M124.889,108V88.444H173.6c2.445,0,4.623,1.822,4.623,4.267V108
	H124.889z M41.822,8.889h51.422c2.444,0,4.533,2.178,4.533,4.623v31.822H37.333V13.511C37.333,11.067,39.378,8.889,41.822,8.889z"/>
<path d="M62.667,68.444c0-2.444-2-4.444-4.444-4.444H36.889c-2.444,0-4.444,2-4.444,4.444v21.333c0,2.444,2,4.444,4.444,4.444
	h21.333c2.444,0,4.444-2,4.444-4.444V68.444z M41.333,85.333V72.889h12v12.445H41.333z"/>
<path d="M103.111,68.444c0-2.444-2-4.444-4.445-4.444H77.333c-2.445,0-4.445,2-4.445,4.444v21.333c0,2.444,2,4.444,4.445,4.444
	h21.333c2.445,0,4.445-2,4.445-4.444V68.444z M93.778,72.889v12.445h-12V72.889H93.778z"/>
<path d="M62.667,113.334c0-2.445-2-4.445-4.444-4.445H36.889c-2.444,0-4.444,2-4.444,4.445v21.332c0,2.445,2,4.445,4.444,4.445
	h21.333c2.444,0,4.444-2,4.444-4.445V113.334z M41.333,130.223v-12.445h12v12.445H41.333z"/>
<path d="M103.111,113.334c0-2.445-2-4.445-4.445-4.445H77.333c-2.445,0-4.445,2-4.445,4.445v21.332c0,2.445,2,4.445,4.445,4.445
	h21.333c2.445,0,4.445-2,4.445-4.445V113.334z M93.778,117.777v12.445h-12v-12.445H93.778z"/>
<path d="M56.178,31.556h6.934v6.755c0,2.444,2,4.444,4.444,4.444s4.444-2,4.444-4.444v-6.755h6.933c2.445,0,4.445-2,4.445-4.444
	c0-2.445-2-4.445-4.445-4.445H72v-7.2c0-2.444-2-4.444-4.444-4.444s-4.444,2-4.444,4.444v7.2h-6.934c-2.444,0-4.444,2-4.444,4.445
	C51.733,29.556,53.689,31.556,56.178,31.556z"/>
</svg>
