<?xml version="1.0" encoding="utf-8"?>
<!-- Generator: Adobe Illustrator 16.0.0, SVG Export Plug-In . SVG Version: 6.00 Build 0)  -->
<!DOCTYPE svg PUBLIC "-//W3C//DTD SVG 1.1//EN" "http://www.w3.org/Graphics/SVG/1.1/DTD/svg11.dtd">
<svg version="1.1" id="Capa_1" xmlns="http://www.w3.org/2000/svg" xmlns:xlink="http://www.w3.org/1999/xlink" x="0px" y="0px"
	 width="200px" height="200px" viewBox="0 0 200 200" enable-background="new 0 0 200 200" xml:space="preserve">
<polygon fill="#F05064" points="159.841,4.171 159.841,195.828 147.852,182.754 135.904,195.828 123.916,182.754 111.926,195.828 
	99.979,182.754 87.99,195.828 76.001,182.754 64.012,195.828 52.065,182.754 40.034,195.828 40.034,4.171 52.023,17.247 
	63.97,4.171 75.959,17.247 87.948,4.171 99.896,17.247 111.885,4.171 123.873,17.247 135.863,4.171 147.81,17.247 "/>
<path d="M81.641,126.734h36.594c2.297,0,4.178-1.879,4.178-4.177s-1.881-4.177-4.178-4.177H81.641c-2.298,0-4.177,1.879-4.177,4.177
	S79.343,126.734,81.641,126.734z"/>
<path d="M135.654,135.508H64.221c-2.298,0-4.178,1.879-4.178,4.178c0,2.297,1.88,4.177,4.178,4.177h71.433
	c2.297,0,4.177-1.88,4.177-4.177C139.831,137.387,137.951,135.508,135.654,135.508z"/>
<path d="M135.654,153.053H64.221c-2.298,0-4.178,1.879-4.178,4.177s1.88,4.178,4.178,4.178h71.433c2.297,0,4.177-1.88,4.177-4.178
	S137.951,153.053,135.654,153.053z"/>
<path d="M161.261,0.287c-1.587-0.626-3.384-0.209-4.554,1.086l-8.896,9.733l-8.898-9.691c-0.794-0.877-1.922-1.337-3.092-1.337
	c-1.169,0-2.297,0.501-3.091,1.337l-8.897,9.691l-8.855-9.733c-0.795-0.877-1.922-1.336-3.092-1.336s-2.298,0.501-3.092,1.336
	l-8.897,9.691l-8.897-9.691c-0.794-0.877-1.922-1.336-3.091-1.336c-1.17,0-2.298,0.501-3.091,1.336l-8.898,9.691L67.02,1.373
	c-0.794-0.877-1.922-1.336-3.091-1.336c-1.17,0-2.298,0.501-3.091,1.336l-8.898,9.691l-8.814-9.691
	c-1.17-1.253-2.924-1.712-4.512-1.086s-2.59,2.172-2.59,3.885v191.657c0,1.713,0.961,3.259,2.59,3.885
	c1.587,0.627,3.384,0.209,4.553-1.086l8.898-9.732l8.898,9.691c0.793,0.877,1.921,1.336,3.091,1.336c1.17,0,2.298-0.501,3.091-1.336
	l8.898-9.691l8.897,9.691c0.794,0.877,1.922,1.336,3.091,1.336c1.17,0,2.298-0.501,3.091-1.336l8.898-9.691l8.897,9.691
	c0.795,0.877,1.922,1.336,3.092,1.336s2.298-0.501,3.092-1.336l8.897-9.691l8.897,9.691c0.794,0.877,1.922,1.336,3.092,1.336
	s2.297-0.501,3.091-1.336l8.897-9.691l8.898,9.691c0.793,0.877,1.922,1.336,3.091,1.336c0.501,0,0.961-0.083,1.421-0.292
	c1.587-0.626,2.59-2.173,2.59-3.885V4.171C163.852,2.459,162.891,0.913,161.261,0.287z M155.496,185.051l-4.637-5.139
	c-0.794-0.877-1.838-1.378-3.008-1.378l0,0c-1.17,0-2.297,0.501-3.092,1.378l-8.896,9.734l-8.898-9.691
	c-0.794-0.878-1.922-1.338-3.092-1.338c-1.169,0-2.297,0.502-3.091,1.338l-8.897,9.691l-8.898-9.691
	c-0.793-0.878-1.921-1.338-3.091-1.338c-1.169,0-2.297,0.502-3.091,1.338l-8.897,9.691l-8.898-9.691
	c-0.793-0.878-1.921-1.338-3.091-1.338c-1.169,0-2.297,0.502-3.091,1.338l-8.814,9.691l-8.898-9.734
	c-0.793-0.877-1.921-1.378-3.091-1.378l0,0c-1.169,0-2.214,0.501-3.007,1.378l-4.637,5.181V14.949l4.637,5.138
	c0.793,0.877,1.838,1.378,3.007,1.378l0,0c1.17,0,2.298-0.501,3.091-1.378l8.898-9.733l8.897,9.691
	c0.794,0.877,1.922,1.337,3.091,1.337c1.17,0,2.298-0.501,3.091-1.337l8.898-9.691l8.897,9.691c0.794,0.877,1.922,1.337,3.091,1.337
	s2.298-0.501,3.091-1.337l8.898-9.691l8.896,9.691c0.795,0.877,1.922,1.337,3.092,1.337s2.298-0.501,3.092-1.337l8.814-9.691
	l8.896,9.733c0.795,0.877,1.922,1.378,3.092,1.378l0,0c1.17,0,2.214-0.501,3.008-1.378l4.637-5.18V185.051z"/>
<path d="M99.938,80.91c-2.882,0-5.264-2.339-5.264-5.264c0-2.297-1.88-4.177-4.177-4.177c-2.298,0-4.177,1.88-4.177,4.177
	c0,6.057,3.968,11.195,9.44,12.95v2.674c0,2.297,1.88,4.177,4.178,4.177c2.297,0,4.178-1.88,4.178-4.177v-2.674
	c5.472-1.754,9.44-6.893,9.44-12.95c0-7.519-6.099-13.618-13.618-13.618c-2.882,0-5.264-2.339-5.264-5.264
	c0-2.924,2.339-5.263,5.264-5.263c2.924,0,5.264,2.381,5.264,5.263c0,2.298,1.879,4.178,4.177,4.178s4.178-1.88,4.178-4.178
	c0-6.057-3.969-11.195-9.44-12.95v-2.632c0-2.297-1.881-4.177-4.178-4.177c-2.298,0-4.178,1.88-4.178,4.177v2.632
	c-5.472,1.754-9.44,6.935-9.44,12.95c0,7.52,6.099,13.619,13.618,13.619c2.883,0,5.264,2.339,5.264,5.263
	C105.201,78.528,102.82,80.91,99.938,80.91z"/>
</svg>
