<?xml version="1.0" encoding="utf-8"?>
<!-- Generator: Adobe Illustrator 16.0.0, SVG Export Plug-In . SVG Version: 6.00 Build 0)  -->
<!DOCTYPE svg PUBLIC "-//W3C//DTD SVG 1.1//EN" "http://www.w3.org/Graphics/SVG/1.1/DTD/svg11.dtd">
<svg version="1.1" id="Layer_1" xmlns="http://www.w3.org/2000/svg" xmlns:xlink="http://www.w3.org/1999/xlink" x="0px" y="0px"
	 width="642.312px" height="92.292px" viewBox="0 0 642.312 92.292" enable-background="new 0 0 642.312 92.292"
	 xml:space="preserve">
<rect x="-74.75" y="-39.076" display="none" fill="#14283C" width="789" height="168.337"/>
<g>
	<polyline fill="none" stroke="#28B48C" stroke-width="6" stroke-miterlimit="10" points="223.21,89.385 3.007,89.385 3.007,2.984 
		223.21,2.984 	"/>
	<polyline fill="none" stroke="#F05064" stroke-width="6" stroke-miterlimit="10" points="408.916,2.984 639.317,2.984 
		639.317,89.385 408.916,89.385 	"/>
	<line fill="none" stroke="#FAC832" stroke-width="6" stroke-miterlimit="10" x1="409.317" y1="89.385" x2="216.916" y2="89.385"/>
	<line fill="none" stroke="#FAC832" stroke-width="6" stroke-miterlimit="10" x1="216.916" y1="2.984" x2="409.317" y2="2.984"/>
	<path fill="#FFFFFF" d="M47.897,33.779c3.275,0,6.48,1.099,9.612,3.294l3.078-7.021c-1.477-1.26-3.375-2.268-5.697-3.023
		c-2.322-0.757-4.725-1.135-7.209-1.135c-3.961,0-7.408,0.811-10.341,2.431c-2.935,1.62-5.184,3.897-6.75,6.831
		c-1.566,2.935-2.349,6.345-2.349,10.232c0,3.889,0.783,7.309,2.349,10.261c1.566,2.952,3.815,5.237,6.75,6.857
		c2.933,1.62,6.38,2.43,10.341,2.43c2.484,0,4.887-0.378,7.209-1.134c2.322-0.756,4.22-1.764,5.697-3.023l-3.078-7.021
		c-3.132,2.197-6.337,3.295-9.612,3.295c-3.097,0-5.463-0.98-7.101-2.942c-1.639-1.962-2.457-4.869-2.457-8.722
		c0-3.852,0.818-6.75,2.457-8.693C42.434,34.751,44.8,33.779,47.897,33.779"/>
	<polygon fill="#FFFFFF" points="90.557,41.177 75.004,41.177 75.004,26.381 65.285,26.381 65.285,64.451 75.004,64.451 
		75.004,49.061 90.557,49.061 90.557,64.451 100.276,64.451 100.276,26.381 90.557,26.381 	"/>
	<polygon fill="#FFFFFF" points="106.648,64.451 133.702,64.451 133.702,56.783 116.314,56.783 116.314,48.899 132.622,48.899 
		132.622,41.285 116.314,41.285 116.314,34.049 133.702,34.049 133.702,26.381 106.648,26.381 	"/>
	<path fill="#FFFFFF" d="M157.083,33.779c3.275,0,6.48,1.099,9.612,3.294l3.078-7.021c-1.477-1.26-3.375-2.268-5.697-3.023
		c-2.322-0.757-4.725-1.135-7.209-1.135c-3.961,0-7.408,0.811-10.341,2.431c-2.935,1.62-5.184,3.897-6.75,6.831
		c-1.566,2.935-2.349,6.345-2.349,10.232c0,3.889,0.783,7.309,2.349,10.261s3.815,5.237,6.75,6.857
		c2.933,1.62,6.38,2.43,10.341,2.43c2.484,0,4.887-0.378,7.209-1.134c2.322-0.756,4.22-1.764,5.697-3.023l-3.078-7.021
		c-3.132,2.197-6.337,3.295-9.612,3.295c-3.097,0-5.463-0.98-7.101-2.942c-1.639-1.962-2.457-4.869-2.457-8.722
		c0-3.852,0.818-6.75,2.457-8.693C151.62,34.751,153.985,33.779,157.083,33.779"/>
	<polygon fill="#FFFFFF" points="210.92,26.381 199.31,26.381 184.406,42.743 184.406,26.381 174.47,26.381 174.47,64.451 
		184.406,64.451 184.406,47.225 199.742,64.451 211.514,64.451 194.126,44.471 	"/>
	<polygon fill="#FFFFFF" points="265.244,50.951 257.09,26.381 250.231,26.381 241.7,50.519 233.815,26.381 223.718,26.381 
		237.271,64.451 245.209,64.451 253.364,41.609 261.41,64.451 269.293,64.451 282.901,26.381 273.506,26.381 	"/>
	<path fill="#FFFFFF" d="M303.516,58.882c-5.158-6.074-8.599-9.945-14.934-15.817l3.168-2.927c3.705,1.792,6.054,3.155,10.217,6.124
		c5.734-6.509,10.05-10.666,15.725-14.777c-1.167-1.271-2.526-2.347-4.093-3.214c-2.861-1.583-6.236-2.376-10.125-2.376
		c-3.888,0-7.263,0.793-10.125,2.376c-2.862,1.585-5.068,3.844-6.615,6.778c-1.548,2.934-2.322,6.381-2.322,10.34
		c0,3.961,0.774,7.408,2.322,10.341c1.547,2.935,3.753,5.203,6.615,6.805c2.862,1.602,6.237,2.402,10.125,2.402
		c3.852,0,7.209-0.801,10.072-2.402c2.861-1.602,5.065-3.87,6.614-6.805c1.548-2.933,2.322-6.38,2.322-10.341
		c0-3.958-0.765-7.406-2.295-10.34C314.545,40.614,310.362,46.604,303.516,58.882"/>
	<path fill="#FFFFFF" d="M350.777,49.385c2.881-0.684,5.112-2.024,6.697-4.021c1.583-1.999,2.376-4.438,2.376-7.318
		c0-3.78-1.161-6.669-3.483-8.667s-5.787-2.997-10.395-2.997h-18.145v38.07h9.774V50.195h3.023c1.8,0,3.114,0.701,3.942,2.105
		l6.588,12.15h10.908l-6.048-10.8C354.721,51.275,352.974,49.854,350.777,49.385 M349.131,41.717
		c-0.954,0.685-2.529,1.026-4.725,1.026h-6.912v-8.856h6.912c2.195,0,3.771,0.352,4.725,1.053c0.954,0.702,1.432,1.846,1.432,3.43
		C350.562,39.917,350.085,41.033,349.131,41.717"/>
	<polygon fill="#FFFFFF" points="401.915,26.381 390.306,26.381 375.401,42.743 375.401,26.381 365.466,26.381 365.466,64.451 
		375.401,64.451 375.401,47.225 390.737,64.451 402.51,64.451 385.121,44.471 	"/>
	<path fill="#FFFFFF" d="M440.471,49.385c2.88-0.684,5.112-2.024,6.696-4.021c1.584-1.999,2.376-4.438,2.376-7.318
		c0-3.78-1.161-6.669-3.482-8.667c-2.322-1.998-5.788-2.997-10.396-2.997h-18.144v38.07h9.773V50.195h3.024
		c1.8,0,3.113,0.701,3.941,2.105l6.589,12.15h10.907l-6.048-10.8C444.413,51.275,442.667,49.854,440.471,49.385 M438.824,41.717
		c-0.954,0.685-2.529,1.026-4.725,1.026h-6.912v-8.856h6.912c2.195,0,3.771,0.352,4.725,1.053c0.953,0.702,1.431,1.846,1.431,3.43
		C440.255,39.917,439.777,41.033,438.824,41.717"/>
	<rect x="455.158" y="26.381" fill="#FFFFFF" width="9.937" height="38.07"/>
	<path fill="#FFFFFF" d="M489.557,49.763h6.696v7.074c-1.693,0.36-3.402,0.54-5.132,0.54c-3.599,0-6.271-0.98-8.018-2.943
		c-1.746-1.961-2.619-4.977-2.619-9.045c0-3.959,0.837-6.894,2.51-8.802c1.676-1.907,4.222-2.862,7.643-2.862
		c1.836,0,3.563,0.253,5.184,0.756c1.62,0.505,3.312,1.333,5.075,2.484l3.078-7.02c-1.512-1.26-3.482-2.25-5.912-2.971
		c-2.43-0.72-5.031-1.08-7.803-1.08c-3.996,0-7.479,0.793-10.449,2.376c-2.97,1.585-5.265,3.853-6.885,6.804
		c-1.62,2.953-2.431,6.392-2.431,10.314c0,4.032,0.811,7.516,2.431,10.449c1.62,2.935,3.95,5.184,6.993,6.75
		c3.041,1.566,6.632,2.349,10.772,2.349c2.628,0,5.202-0.252,7.722-0.756c2.521-0.504,4.771-1.224,6.75-2.16V42.959h-15.605V49.763z
		"/>
	<polygon fill="#FFFFFF" points="536.373,41.177 520.821,41.177 520.821,26.381 511.102,26.381 511.102,64.451 520.821,64.451 
		520.821,49.061 536.373,49.061 536.373,64.451 546.094,64.451 546.094,26.381 536.373,26.381 	"/>
	<polygon fill="#FFFFFF" points="549.657,34.427 561.051,34.427 561.051,64.451 571.094,64.451 571.094,34.427 582.489,34.427 
		582.489,26.381 549.657,26.381 	"/>
	<path fill="#FFFFFF" d="M614.024,47.98c-0.829-1.403-2.232-2.637-4.212-3.698c-1.98-1.062-4.698-1.972-8.154-2.728
		c-2.124-0.432-3.726-0.854-4.806-1.269s-1.818-0.837-2.214-1.27c-0.396-0.432-0.595-0.989-0.595-1.674
		c0-1.151,0.558-2.079,1.675-2.781c1.115-0.701,2.592-1.053,4.428-1.053c3.814,0,7.452,1.188,10.908,3.564l3.023-7.021
		c-1.44-1.224-3.447-2.223-6.021-2.997c-2.574-0.773-5.229-1.161-7.965-1.161c-3.097,0-5.842,0.532-8.235,1.594
		c-2.395,1.062-4.248,2.52-5.562,4.374s-1.971,3.951-1.971,6.291c0,2.052,0.405,3.779,1.215,5.184
		c0.811,1.404,2.223,2.628,4.239,3.672c2.016,1.045,4.806,1.944,8.37,2.701c2.88,0.611,4.833,1.224,5.858,1.835
		c1.026,0.612,1.538,1.404,1.538,2.376c0,1.081-0.565,1.917-1.699,2.511c-1.135,0.595-2.781,0.892-4.941,0.892
		c-2.125,0-4.23-0.306-6.318-0.918s-4.05-1.494-5.886-2.646l-3.078,7.021c1.729,1.26,3.978,2.268,6.75,3.023
		c2.771,0.756,5.58,1.134,8.423,1.134c5.221,0,9.271-1.053,12.151-3.158c2.88-2.106,4.32-5.031,4.32-8.775
		C615.267,51.059,614.852,49.385,614.024,47.98"/>
</g>
</svg>
