<?xml version="1.0" encoding="utf-8"?>
<!-- Generator: Adobe Illustrator 16.0.0, SVG Export Plug-In . SVG Version: 6.00 Build 0)  -->
<!DOCTYPE svg PUBLIC "-//W3C//DTD SVG 1.1//EN" "http://www.w3.org/Graphics/SVG/1.1/DTD/svg11.dtd">
<svg version="1.1" id="Layer_1" xmlns="http://www.w3.org/2000/svg" xmlns:xlink="http://www.w3.org/1999/xlink" x="0px" y="0px"
	 width="259.667px" height="259.625px" viewBox="0 0 259.667 259.625" enable-background="new 0 0 259.667 259.625"
	 xml:space="preserve">
<g>
	<g>
		<defs>
			<path id="SVGID_1_" d="M61.038,0.439c-33.291,0-60.529,27.238-60.529,60.528v138.142c0,33.291,27.238,60.529,60.529,60.529
				H199.18c33.291,0,60.528-27.238,60.528-60.529V60.967c0-33.291-27.237-60.528-60.528-60.528H61.038z"/>
		</defs>
		<clipPath id="SVGID_2_">
			<use xlink:href="#SVGID_1_"  overflow="visible"/>
		</clipPath>
		<rect x="-0.791" y="-0.484" clip-path="url(#SVGID_2_)" fill="#28B48C" width="260.5" height="91.255"/>
		<rect x="-0.791" y="94.389" clip-path="url(#SVGID_2_)" fill="#FAC832" width="260.5" height="72.361"/>
		<rect x="-0.791" y="170.369" clip-path="url(#SVGID_2_)" fill="#F05064" width="260.5" height="91.254"/>
	</g>
	<g>
		<path fill="#FFFFFF" d="M57.67,37.48c3.209,0,6.35,1.076,9.418,3.228l3.016-6.879c-1.447-1.234-3.307-2.222-5.582-2.962
			c-2.275-0.742-4.629-1.112-7.062-1.112c-3.881,0-7.259,0.794-10.133,2.381c-2.875,1.587-5.078,3.818-6.613,6.693
			c-1.534,2.875-2.301,6.216-2.301,10.025c0,3.81,0.767,7.161,2.301,10.053c1.535,2.893,3.738,5.132,6.613,6.719
			c2.874,1.587,6.252,2.38,10.133,2.38c2.434,0,4.787-0.369,7.062-1.11c2.275-0.74,4.135-1.728,5.582-2.962l-3.016-6.88
			c-3.068,2.153-6.209,3.229-9.418,3.229c-3.034,0-5.352-0.961-6.957-2.883c-1.605-1.923-2.408-4.771-2.408-8.545
			c0-3.773,0.803-6.613,2.408-8.518C52.319,38.432,54.636,37.48,57.67,37.48"/>
		<polygon fill="#FFFFFF" points="99.467,44.728 84.229,44.728 84.229,30.231 74.707,30.231 74.707,67.532 84.229,67.532 
			84.229,52.452 99.467,52.452 99.467,67.532 108.991,67.532 108.991,30.231 99.467,30.231 		"/>
		<polygon fill="#FFFFFF" points="115.233,67.532 141.74,67.532 141.74,60.018 124.704,60.018 124.704,52.294 140.682,52.294 
			140.682,44.834 124.704,44.834 124.704,37.744 141.74,37.744 141.74,30.231 115.233,30.231 		"/>
		<path fill="#FFFFFF" d="M164.647,37.48c3.209,0,6.35,1.076,9.418,3.228l3.016-6.879c-1.447-1.234-3.307-2.222-5.581-2.962
			c-2.275-0.742-4.63-1.112-7.063-1.112c-3.881,0-7.258,0.794-10.132,2.381c-2.877,1.587-5.079,3.818-6.614,6.693
			c-1.534,2.875-2.301,6.216-2.301,10.025c0,3.81,0.767,7.161,2.301,10.053c1.535,2.893,3.737,5.132,6.614,6.719
			c2.874,1.587,6.251,2.38,10.132,2.38c2.434,0,4.788-0.369,7.063-1.11c2.274-0.74,4.134-1.728,5.581-2.962l-3.016-6.88
			c-3.068,2.153-6.209,3.229-9.418,3.229c-3.034,0-5.353-0.961-6.957-2.883c-1.606-1.923-2.407-4.771-2.407-8.545
			c0-3.773,0.801-6.613,2.407-8.518C159.294,38.432,161.613,37.48,164.647,37.48"/>
		<polygon fill="#FFFFFF" points="217.396,30.231 206.021,30.231 191.418,46.263 191.418,30.231 181.683,30.231 181.683,67.532 
			191.418,67.532 191.418,50.653 206.444,67.532 217.977,67.532 200.942,47.955 		"/>
	</g>
	<g>
		<polygon fill="#FFFFFF" points="82.293,135.58 74.304,111.508 67.584,111.508 59.225,135.156 51.5,111.508 41.608,111.508 
			54.887,148.809 62.665,148.809 70.654,126.428 78.537,148.809 86.261,148.809 99.594,111.508 90.388,111.508 		"/>
		<path fill="#FFFFFF" d="M119.792,143.352c-5.053-5.951-8.425-9.744-14.631-15.498l3.104-2.867c3.629,1.756,5.931,3.092,10.01,6
			c5.618-6.377,9.848-10.451,15.407-14.479c-1.144-1.246-2.476-2.299-4.01-3.148c-2.804-1.551-6.11-2.328-9.919-2.328
			c-3.811,0-7.117,0.777-9.922,2.328c-2.803,1.553-4.965,3.766-6.48,6.641c-1.517,2.875-2.275,6.252-2.275,10.131
			c0,3.881,0.759,7.258,2.275,10.131c1.516,2.877,3.678,5.1,6.48,6.668c2.805,1.568,6.111,2.354,9.922,2.354
			c3.773,0,7.062-0.785,9.867-2.354c2.803-1.568,4.963-3.791,6.48-6.668c1.516-2.873,2.275-6.25,2.275-10.131
			c0-3.877-0.751-7.256-2.249-10.131C130.597,125.453,126.499,131.32,119.792,143.352"/>
		<path fill="#FFFFFF" d="M166.096,134.047c2.823-0.67,5.01-1.984,6.562-3.941c1.551-1.957,2.328-4.348,2.328-7.17
			c0-3.703-1.138-6.533-3.413-8.492c-2.275-1.957-5.67-2.936-10.185-2.936h-17.777v37.301h9.576V134.84h2.963
			c1.764,0,3.051,0.688,3.862,2.062l6.455,11.906h10.688l-5.926-10.582C169.96,135.898,168.249,134.506,166.096,134.047
			 M164.484,126.533c-0.936,0.672-2.479,1.006-4.63,1.006h-6.771v-8.678h6.771c2.151,0,3.694,0.346,4.63,1.031
			c0.935,0.689,1.402,1.809,1.402,3.361C165.886,124.77,165.418,125.863,164.484,126.533"/>
		<polygon fill="#FFFFFF" points="216.2,111.508 204.826,111.508 190.222,127.539 190.222,111.508 180.488,111.508 180.488,148.809 
			190.222,148.809 190.222,131.93 205.249,148.809 216.783,148.809 199.746,129.232 		"/>
	</g>
	<g>
		<path fill="#FFFFFF" d="M58,216.521c2.822-0.67,5.01-1.982,6.562-3.939c1.552-1.959,2.327-4.348,2.327-7.17
			c0-3.705-1.137-6.535-3.411-8.492c-2.275-1.957-5.671-2.936-10.186-2.936H35.516v37.299h9.576v-13.967h2.963
			c1.764,0,3.051,0.688,3.861,2.062l6.456,11.904h10.687l-5.926-10.58C61.864,218.375,60.153,216.98,58,216.521 M56.387,209.01
			c-0.934,0.67-2.478,1.006-4.629,1.006h-6.771v-8.678h6.771c2.151,0,3.695,0.344,4.629,1.031c0.935,0.688,1.402,1.809,1.402,3.359
			C57.79,207.246,57.322,208.34,56.387,209.01"/>
		<rect x="72.391" y="193.984" fill="#FFFFFF" width="9.736" height="37.299"/>
		<path fill="#FFFFFF" d="M106.094,216.893h6.561v6.932c-1.659,0.352-3.334,0.529-5.027,0.529c-3.526,0-6.145-0.961-7.855-2.885
			c-1.711-1.922-2.566-4.875-2.566-8.861c0-3.879,0.82-6.754,2.459-8.625c1.642-1.867,4.137-2.805,7.488-2.805
			c1.799,0,3.49,0.248,5.078,0.742s3.244,1.305,4.973,2.434l3.016-6.877c-1.48-1.234-3.412-2.205-5.793-2.912
			c-2.38-0.705-4.929-1.057-7.645-1.057c-3.915,0-7.328,0.775-10.237,2.326c-2.909,1.555-5.158,3.775-6.745,6.668
			c-1.588,2.893-2.382,6.262-2.382,10.105c0,3.949,0.794,7.363,2.382,10.236c1.587,2.877,3.869,5.08,6.852,6.615
			c2.979,1.533,6.497,2.301,10.555,2.301c2.574,0,5.096-0.248,7.564-0.74c2.47-0.494,4.674-1.199,6.613-2.117v-18.676h-15.289
			V216.893z"/>
		<polygon fill="#FFFFFF" points="151.963,208.48 136.726,208.48 136.726,193.984 127.204,193.984 127.204,231.283 136.726,231.283 
			136.726,216.205 151.963,216.205 151.963,231.283 161.488,231.283 161.488,193.984 151.963,193.984 		"/>
		<polygon fill="#FFFFFF" points="164.979,201.867 176.142,201.867 176.142,231.283 185.982,231.283 185.982,201.867 
			197.147,201.867 197.147,193.984 164.979,193.984 		"/>
		<path fill="#FFFFFF" d="M228.044,215.146c-0.812-1.375-2.188-2.584-4.127-3.623c-1.94-1.041-4.604-1.932-7.989-2.674
			c-2.081-0.422-3.65-0.836-4.709-1.242c-1.058-0.406-1.781-0.82-2.169-1.244c-0.388-0.422-0.582-0.969-0.582-1.639
			c0-1.129,0.546-2.037,1.641-2.727c1.093-0.686,2.539-1.031,4.338-1.031c3.737,0,7.302,1.164,10.688,3.492l2.963-6.877
			c-1.412-1.199-3.378-2.178-5.899-2.938c-2.521-0.758-5.123-1.137-7.804-1.137c-3.034,0-5.724,0.521-8.068,1.561
			c-2.347,1.041-4.162,2.469-5.45,4.285c-1.288,1.818-1.931,3.871-1.931,6.164c0,2.01,0.397,3.703,1.19,5.078
			c0.794,1.377,2.178,2.576,4.153,3.598c1.975,1.025,4.708,1.906,8.201,2.646c2.821,0.6,4.735,1.199,5.739,1.799
			c1.006,0.6,1.507,1.375,1.507,2.328c0,1.059-0.554,1.877-1.665,2.459c-1.111,0.584-2.725,0.875-4.841,0.875
			c-2.082,0-4.146-0.301-6.19-0.9c-2.046-0.6-3.968-1.463-5.767-2.594l-3.017,6.879c1.694,1.234,3.897,2.223,6.614,2.963
			c2.715,0.74,5.467,1.111,8.252,1.111c5.115,0,9.083-1.031,11.905-3.096c2.822-2.062,4.233-4.928,4.233-8.598
			C229.261,218.162,228.855,216.521,228.044,215.146"/>
	</g>
</g>
<g>
	<g>
		<defs>
			<path id="SVGID_3_" d="M60.52,0.026c-33.291,0-60.529,27.238-60.529,60.528v138.143c0,33.291,27.238,60.529,60.529,60.529
				h138.143c33.291,0,60.528-27.238,60.528-60.529V60.555c0-33.291-27.237-60.528-60.528-60.528H60.52z"/>
		</defs>
		<clipPath id="SVGID_4_">
			<use xlink:href="#SVGID_3_"  overflow="visible"/>
		</clipPath>
		<rect x="-1.308" y="-0.897" clip-path="url(#SVGID_4_)" fill="#28B48C" width="260.5" height="91.255"/>
		<rect x="-1.308" y="93.977" clip-path="url(#SVGID_4_)" fill="#FAC832" width="260.5" height="72.36"/>
		<rect x="-1.308" y="169.956" clip-path="url(#SVGID_4_)" fill="#F05064" width="260.5" height="91.255"/>
		<g clip-path="url(#SVGID_4_)">
			<path fill="#FFFFFF" d="M-54.998-47.902c3.274,0,6.479,1.099,9.611,3.294l3.078-7.021c-1.477-1.26-3.375-2.268-5.697-3.023
				c-2.322-0.757-4.725-1.135-7.209-1.135c-3.961,0-7.408,0.811-10.341,2.431c-2.935,1.62-5.184,3.897-6.75,6.831
				c-1.565,2.935-2.349,6.345-2.349,10.232c0,3.889,0.783,7.309,2.349,10.261c1.566,2.952,3.815,5.237,6.75,6.857
				c2.933,1.62,6.38,2.43,10.341,2.43c2.484,0,4.887-0.378,7.209-1.134s4.221-1.764,5.697-3.023l-3.078-7.021
				c-3.132,2.197-6.337,3.295-9.611,3.295c-3.098,0-5.463-0.98-7.102-2.942s-2.457-4.869-2.457-8.722
				c0-3.852,0.818-6.75,2.457-8.693C-60.46-46.931-58.095-47.902-54.998-47.902"/>
			<polygon fill="#FFFFFF" points="-12.338,-40.505 -27.89,-40.505 -27.89,-55.301 -37.611,-55.301 -37.611,-17.23 -27.89,-17.23 
				-27.89,-32.621 -12.338,-32.621 -12.338,-17.23 -2.619,-17.23 -2.619,-55.301 -12.338,-55.301 			"/>
			<polygon fill="#FFFFFF" points="3.752,-17.23 30.807,-17.23 30.807,-24.898 13.418,-24.898 13.418,-32.782 29.727,-32.782 
				29.727,-40.396 13.418,-40.396 13.418,-47.633 30.807,-47.633 30.807,-55.301 3.752,-55.301 			"/>
			<path fill="#FFFFFF" d="M54.188-47.902c3.274,0,6.479,1.099,9.611,3.294l3.078-7.021c-1.477-1.26-3.375-2.268-5.697-3.023
				c-2.322-0.757-4.725-1.135-7.209-1.135c-3.961,0-7.408,0.811-10.341,2.431c-2.935,1.62-5.185,3.897-6.75,6.831
				c-1.565,2.935-2.349,6.345-2.349,10.232c0,3.889,0.783,7.309,2.349,10.261s3.815,5.237,6.75,6.857
				c2.933,1.62,6.38,2.43,10.341,2.43c2.484,0,4.887-0.378,7.209-1.134s4.221-1.764,5.697-3.023l-3.078-7.021
				c-3.132,2.197-6.337,3.295-9.611,3.295c-3.098,0-5.463-0.98-7.102-2.942s-2.457-4.869-2.457-8.722
				c0-3.852,0.818-6.75,2.457-8.693C48.725-46.931,51.09-47.902,54.188-47.902"/>
			<polygon fill="#FFFFFF" points="108.025,-55.301 96.415,-55.301 81.51,-38.938 81.51,-55.301 71.575,-55.301 71.575,-17.23 
				81.51,-17.23 81.51,-34.457 96.846,-17.23 108.619,-17.23 91.231,-37.211 			"/>
		</g>
		<g clip-path="url(#SVGID_4_)">
			<polygon fill="#FFFFFF" points="162.348,-30.73 154.195,-55.301 147.336,-55.301 138.805,-31.163 130.92,-55.301 
				120.823,-55.301 134.376,-17.23 142.315,-17.23 150.469,-40.072 158.514,-17.23 166.399,-17.23 180.006,-55.301 170.611,-55.301 
							"/>
			<path fill="#FFFFFF" d="M200.622-22.8c-5.158-6.074-8.6-9.945-14.934-15.817l3.168-2.927c3.704,1.792,6.053,3.155,10.217,6.124
				c5.733-6.509,10.049-10.666,15.725-14.777c-1.167-1.271-2.525-2.347-4.092-3.214c-2.862-1.583-6.237-2.376-10.125-2.376
				c-3.889,0-7.264,0.793-10.125,2.376c-2.862,1.585-5.068,3.844-6.615,6.778c-1.548,2.934-2.322,6.381-2.322,10.34
				c0,3.961,0.774,7.408,2.322,10.341c1.547,2.935,3.753,5.203,6.615,6.805c2.861,1.602,6.236,2.402,10.125,2.402
				c3.852,0,7.209-0.801,10.07-2.402c2.862-1.602,5.066-3.87,6.615-6.805c1.547-2.933,2.322-6.38,2.322-10.341
				c0-3.958-0.766-7.406-2.295-10.34C211.651-41.067,207.467-35.078,200.622-22.8"/>
			<path fill="#FFFFFF" d="M247.882-32.297c2.881-0.684,5.112-2.024,6.697-4.021c1.583-1.999,2.376-4.438,2.376-7.318
				c0-3.78-1.161-6.669-3.483-8.667s-5.787-2.997-10.395-2.997h-18.145v38.07h9.774v-14.256h3.023c1.8,0,3.114,0.701,3.942,2.105
				l6.588,12.15h10.908l-6.048-10.8C251.826-30.406,250.079-31.828,247.882-32.297 M246.236-39.965
				c-0.954,0.685-2.529,1.026-4.725,1.026h-6.912v-8.856h6.912c2.195,0,3.771,0.352,4.725,1.053c0.954,0.702,1.432,1.846,1.432,3.43
				C247.667-41.765,247.19-40.648,246.236-39.965"/>
			<polygon fill="#FFFFFF" points="299.02,-55.301 287.411,-55.301 272.506,-38.938 272.506,-55.301 262.571,-55.301 
				262.571,-17.23 272.506,-17.23 272.506,-34.457 287.842,-17.23 299.615,-17.23 282.226,-37.211 			"/>
		</g>
		<g clip-path="url(#SVGID_4_)">
			<path fill="#FFFFFF" d="M337.576-32.297c2.88-0.684,5.112-2.024,6.696-4.021c1.584-1.999,2.376-4.438,2.376-7.318
				c0-3.78-1.161-6.669-3.482-8.667c-2.322-1.998-5.788-2.997-10.396-2.997h-18.144v38.07h9.773v-14.256h3.024
				c1.8,0,3.113,0.701,3.941,2.105l6.589,12.15h10.907l-6.048-10.8C341.518-30.406,339.772-31.828,337.576-32.297 M335.929-39.965
				c-0.954,0.685-2.529,1.026-4.725,1.026h-6.912v-8.856h6.912c2.195,0,3.771,0.352,4.725,1.053c0.953,0.702,1.431,1.846,1.431,3.43
				C337.36-41.765,336.882-40.648,335.929-39.965"/>
			<rect x="352.263" y="-55.301" fill="#FFFFFF" width="9.937" height="38.07"/>
			<path fill="#FFFFFF" d="M386.662-31.919h6.696v7.074c-1.693,0.36-3.402,0.54-5.132,0.54c-3.599,0-6.271-0.98-8.018-2.943
				c-1.746-1.961-2.619-4.977-2.619-9.045c0-3.959,0.837-6.894,2.51-8.802c1.676-1.907,4.222-2.862,7.643-2.862
				c1.836,0,3.563,0.253,5.184,0.756c1.62,0.505,3.312,1.333,5.075,2.484l3.078-7.02c-1.512-1.26-3.482-2.25-5.912-2.971
				c-2.43-0.72-5.031-1.08-7.803-1.08c-3.996,0-7.479,0.793-10.449,2.376c-2.97,1.585-5.265,3.853-6.885,6.804
				c-1.62,2.953-2.431,6.392-2.431,10.314c0,4.032,0.811,7.516,2.431,10.449c1.62,2.935,3.95,5.184,6.993,6.75
				c3.041,1.566,6.632,2.349,10.772,2.349c2.628,0,5.202-0.252,7.722-0.756c2.521-0.504,4.771-1.224,6.75-2.16v-19.062h-15.605
				V-31.919z"/>
			<polygon fill="#FFFFFF" points="433.478,-40.505 417.926,-40.505 417.926,-55.301 408.207,-55.301 408.207,-17.23 
				417.926,-17.23 417.926,-32.621 433.478,-32.621 433.478,-17.23 443.199,-17.23 443.199,-55.301 433.478,-55.301 			"/>
			<polygon fill="#FFFFFF" points="446.762,-47.255 458.156,-47.255 458.156,-17.23 468.199,-17.23 468.199,-47.255 
				479.594,-47.255 479.594,-55.301 446.762,-55.301 			"/>
			<path fill="#FFFFFF" d="M511.129-33.701c-0.829-1.403-2.232-2.637-4.212-3.698c-1.98-1.062-4.698-1.972-8.154-2.728
				c-2.124-0.432-3.726-0.854-4.806-1.269s-1.818-0.837-2.214-1.27c-0.396-0.432-0.595-0.989-0.595-1.674
				c0-1.151,0.558-2.079,1.675-2.781c1.115-0.701,2.592-1.053,4.428-1.053c3.814,0,7.452,1.188,10.908,3.564l3.023-7.021
				c-1.44-1.224-3.447-2.223-6.021-2.997c-2.574-0.773-5.229-1.161-7.965-1.161c-3.097,0-5.842,0.532-8.235,1.594
				c-2.395,1.062-4.248,2.52-5.562,4.374s-1.971,3.951-1.971,6.291c0,2.052,0.405,3.779,1.215,5.184
				c0.811,1.404,2.223,2.628,4.239,3.672c2.016,1.045,4.806,1.944,8.37,2.701c2.88,0.611,4.833,1.224,5.858,1.835
				c1.026,0.612,1.538,1.404,1.538,2.376c0,1.081-0.565,1.917-1.699,2.511c-1.135,0.595-2.781,0.892-4.941,0.892
				c-2.125,0-4.23-0.306-6.318-0.918s-4.05-1.494-5.886-2.646l-3.078,7.021c1.729,1.26,3.978,2.268,6.75,3.023
				c2.771,0.756,5.58,1.134,8.423,1.134c5.221,0,9.271-1.053,12.151-3.158c2.88-2.106,4.32-5.031,4.32-8.775
				C512.372-30.623,511.957-32.297,511.129-33.701"/>
		</g>
	</g>
	<g>
		<path fill="#FFFFFF" d="M57.153,37.067c3.209,0,6.35,1.076,9.418,3.228l3.016-6.879c-1.447-1.234-3.307-2.222-5.582-2.962
			c-2.275-0.742-4.629-1.112-7.062-1.112c-3.881,0-7.259,0.794-10.133,2.381c-2.875,1.587-5.078,3.818-6.613,6.693
			c-1.534,2.875-2.301,6.216-2.301,10.025c0,3.81,0.767,7.161,2.301,10.053c1.535,2.893,3.738,5.132,6.613,6.719
			c2.874,1.587,6.252,2.38,10.133,2.38c2.434,0,4.787-0.369,7.062-1.11c2.275-0.74,4.135-1.728,5.582-2.962l-3.016-6.88
			c-3.068,2.153-6.209,3.229-9.418,3.229c-3.034,0-5.352-0.961-6.957-2.883c-1.605-1.923-2.408-4.771-2.408-8.545
			c0-3.773,0.803-6.613,2.408-8.518C51.801,38.02,54.119,37.067,57.153,37.067"/>
		<polygon fill="#FFFFFF" points="98.95,44.315 83.711,44.315 83.711,29.818 74.189,29.818 74.189,67.119 83.711,67.119 
			83.711,52.039 98.95,52.039 98.95,67.119 108.473,67.119 108.473,29.818 98.95,29.818 		"/>
		<polygon fill="#FFFFFF" points="114.715,67.119 141.222,67.119 141.222,59.605 124.186,59.605 124.186,51.882 140.165,51.882 
			140.165,44.421 124.186,44.421 124.186,37.332 141.222,37.332 141.222,29.818 114.715,29.818 		"/>
		<path fill="#FFFFFF" d="M164.129,37.067c3.209,0,6.35,1.076,9.418,3.228l3.016-6.879c-1.447-1.234-3.307-2.222-5.581-2.962
			c-2.275-0.742-4.63-1.112-7.063-1.112c-3.881,0-7.258,0.794-10.132,2.381c-2.877,1.587-5.079,3.818-6.614,6.693
			c-1.534,2.875-2.301,6.216-2.301,10.025c0,3.81,0.767,7.161,2.301,10.053c1.535,2.893,3.737,5.132,6.614,6.719
			c2.874,1.587,6.251,2.38,10.132,2.38c2.434,0,4.788-0.369,7.063-1.11c2.274-0.74,4.134-1.728,5.581-2.962l-3.016-6.88
			c-3.068,2.153-6.209,3.229-9.418,3.229c-3.034,0-5.353-0.961-6.957-2.883c-1.606-1.923-2.407-4.771-2.407-8.545
			c0-3.773,0.801-6.613,2.407-8.518C158.777,38.02,161.095,37.067,164.129,37.067"/>
		<polygon fill="#FFFFFF" points="216.878,29.818 205.503,29.818 190.901,45.85 190.901,29.818 181.166,29.818 181.166,67.119 
			190.901,67.119 190.901,50.24 205.926,67.119 217.459,67.119 200.424,47.542 		"/>
	</g>
	<g>
		<polygon fill="#FFFFFF" points="81.776,135.168 73.787,111.095 67.067,111.095 58.708,134.744 50.983,111.095 41.09,111.095 
			54.37,148.396 62.147,148.396 70.136,126.016 78.019,148.396 85.744,148.396 99.077,111.095 89.871,111.095 		"/>
		<path fill="#FFFFFF" d="M119.274,142.938c-5.053-5.951-8.425-9.744-14.631-15.497l3.104-2.868
			c3.629,1.756,5.931,3.092,10.01,6.001c5.618-6.378,9.848-10.451,15.407-14.479c-1.144-1.246-2.476-2.3-4.01-3.149
			c-2.804-1.551-6.11-2.328-9.919-2.328c-3.811,0-7.117,0.777-9.922,2.328c-2.803,1.553-4.965,3.767-6.48,6.642
			c-1.517,2.874-2.275,6.252-2.275,10.131c0,3.881,0.759,7.258,2.275,10.131c1.516,2.876,3.678,5.099,6.48,6.668
			c2.805,1.568,6.111,2.354,9.922,2.354c3.773,0,7.062-0.785,9.867-2.354c2.803-1.569,4.963-3.792,6.48-6.668
			c1.516-2.873,2.275-6.25,2.275-10.131c0-3.878-0.751-7.257-2.249-10.131C130.08,125.041,125.981,130.908,119.274,142.938"/>
		<path fill="#FFFFFF" d="M165.579,133.634c2.823-0.67,5.01-1.983,6.562-3.94c1.551-1.958,2.328-4.348,2.328-7.17
			c0-3.704-1.138-6.534-3.413-8.492c-2.275-1.957-5.67-2.937-10.185-2.937h-17.777v37.301h9.576v-13.968h2.963
			c1.764,0,3.051,0.688,3.862,2.062l6.455,11.905h10.688l-5.926-10.581C169.443,135.486,167.731,134.093,165.579,133.634
			 M163.966,126.121c-0.936,0.671-2.479,1.005-4.63,1.005h-6.771v-8.677h6.771c2.151,0,3.694,0.345,4.63,1.031
			c0.935,0.688,1.402,1.809,1.402,3.36C165.369,124.357,164.901,125.451,163.966,126.121"/>
		<polygon fill="#FFFFFF" points="215.682,111.095 204.308,111.095 189.705,127.126 189.705,111.095 179.97,111.095 179.97,148.396 
			189.705,148.396 189.705,131.518 204.731,148.396 216.265,148.396 199.228,128.819 		"/>
	</g>
	<g>
		<path fill="#FFFFFF" d="M57.483,216.109c2.822-0.67,5.01-1.982,6.562-3.939c1.552-1.959,2.327-4.348,2.327-7.17
			c0-3.705-1.137-6.535-3.411-8.492c-2.275-1.957-5.671-2.936-10.186-2.936H34.999v37.299h9.576v-13.967h2.963
			c1.764,0,3.051,0.688,3.861,2.062l6.456,11.904h10.687l-5.926-10.58C61.346,217.963,59.635,216.568,57.483,216.109 M55.87,208.598
			c-0.934,0.67-2.478,1.006-4.629,1.006h-6.771v-8.678h6.771c2.151,0,3.695,0.344,4.629,1.031c0.935,0.688,1.402,1.809,1.402,3.359
			C57.272,206.834,56.804,207.928,55.87,208.598"/>
		<rect x="71.874" y="193.572" fill="#FFFFFF" width="9.736" height="37.299"/>
		<path fill="#FFFFFF" d="M105.577,216.48h6.561v6.932c-1.659,0.352-3.334,0.529-5.027,0.529c-3.526,0-6.145-0.961-7.855-2.885
			c-1.711-1.922-2.566-4.875-2.566-8.861c0-3.879,0.82-6.754,2.459-8.625c1.642-1.867,4.137-2.805,7.488-2.805
			c1.799,0,3.49,0.248,5.078,0.742s3.244,1.305,4.973,2.434l3.016-6.877c-1.48-1.234-3.412-2.205-5.793-2.912
			c-2.38-0.705-4.929-1.057-7.645-1.057c-3.915,0-7.328,0.775-10.237,2.326c-2.909,1.555-5.158,3.775-6.745,6.668
			c-1.588,2.893-2.382,6.262-2.382,10.105c0,3.949,0.794,7.363,2.382,10.236c1.587,2.877,3.869,5.08,6.852,6.615
			c2.979,1.533,6.497,2.301,10.555,2.301c2.574,0,5.096-0.248,7.564-0.74c2.47-0.494,4.674-1.199,6.613-2.117v-18.676h-15.289
			V216.48z"/>
		<polygon fill="#FFFFFF" points="151.446,208.068 136.208,208.068 136.208,193.572 126.686,193.572 126.686,230.871 
			136.208,230.871 136.208,215.793 151.446,215.793 151.446,230.871 160.97,230.871 160.97,193.572 151.446,193.572 		"/>
		<polygon fill="#FFFFFF" points="164.461,201.455 175.625,201.455 175.625,230.871 185.464,230.871 185.464,201.455 
			196.629,201.455 196.629,193.572 164.461,193.572 		"/>
		<path fill="#FFFFFF" d="M227.527,214.734c-0.812-1.375-2.188-2.584-4.127-3.623c-1.94-1.041-4.604-1.932-7.989-2.674
			c-2.081-0.422-3.65-0.836-4.709-1.242c-1.058-0.406-1.781-0.82-2.169-1.244c-0.388-0.422-0.582-0.969-0.582-1.639
			c0-1.129,0.546-2.037,1.641-2.727c1.093-0.686,2.539-1.031,4.338-1.031c3.737,0,7.302,1.164,10.688,3.492l2.963-6.877
			c-1.412-1.199-3.378-2.178-5.899-2.938c-2.521-0.758-5.123-1.137-7.804-1.137c-3.034,0-5.724,0.521-8.068,1.561
			c-2.347,1.041-4.162,2.469-5.45,4.285c-1.288,1.818-1.931,3.871-1.931,6.164c0,2.01,0.397,3.703,1.19,5.078
			c0.794,1.377,2.178,2.576,4.153,3.598c1.975,1.025,4.708,1.906,8.201,2.646c2.821,0.6,4.735,1.199,5.739,1.799
			c1.006,0.6,1.507,1.375,1.507,2.328c0,1.059-0.554,1.877-1.665,2.459c-1.111,0.584-2.725,0.875-4.841,0.875
			c-2.082,0-4.146-0.301-6.19-0.9c-2.046-0.6-3.968-1.463-5.767-2.594l-3.017,6.879c1.694,1.234,3.897,2.223,6.614,2.963
			c2.715,0.74,5.467,1.111,8.252,1.111c5.115,0,9.083-1.031,11.905-3.096c2.822-2.062,4.233-4.928,4.233-8.598
			C228.744,217.75,228.337,216.109,227.527,214.734"/>
	</g>
</g>
<g>
</g>
<g>
</g>
<g>
</g>
<g>
</g>
<g>
</g>
<g>
</g>
</svg>
