<?xml version="1.0" encoding="utf-8"?>
<!-- Generator: Adobe Illustrator 16.0.0, SVG Export Plug-In . SVG Version: 6.00 Build 0)  -->
<!DOCTYPE svg PUBLIC "-//W3C//DTD SVG 1.1//EN" "http://www.w3.org/Graphics/SVG/1.1/DTD/svg11.dtd">
<svg version="1.1" id="Layer_1" xmlns="http://www.w3.org/2000/svg" xmlns:xlink="http://www.w3.org/1999/xlink" x="0px" y="0px"
	 width="400px" height="200px" viewBox="0 0 400 200" enable-background="new 0 0 400 200" xml:space="preserve">
<path opacity="0.15" fill="#E5007D" d="M400,85c-3.584,3.92-16.22-1.709-21.25,0c-7.014,2.383-12.583,9.667-29.412,3.598
	c-11.935-4.303-30.15,2.402-42.9,5.339c-16.058,3.7-30.63-2.725-39.271-5.938c-9.241-3.436-16.219-6.078-39.333,2.833
	c-6.74,2.599-19.333,15.542-28.893,0.175c-3.976-6.392-13.974-9.297-28.691-9.133C159,82,141,72.125,121.5,80.375
	c-10.667,4.513-7.396-6.873-16.25-7.375C81,71.625,75.787,87.944,69.375,80.75C64.25,75,52.5,78.875,43.625,77.125
	C34.782,75.381,32.5,90.25,15,91c-4.035,0.173-13.15-2.41-15-6C-4.767,75.75,0,0,0,0h400C400,0,410.667,73.333,400,85z"/>
</svg>
