<?xml version="1.0" encoding="utf-8"?>
<!-- Generator: Adobe Illustrator 16.0.0, SVG Export Plug-In . SVG Version: 6.00 Build 0)  -->
<!DOCTYPE svg PUBLIC "-//W3C//DTD SVG 1.1//EN" "http://www.w3.org/Graphics/SVG/1.1/DTD/svg11.dtd">
<svg version="1.1" id="Layer_1" xmlns="http://www.w3.org/2000/svg" xmlns:xlink="http://www.w3.org/1999/xlink" x="0px" y="0px"
	 width="400px" height="200px" viewBox="0 0 400 200" enable-background="new 0 0 400 200" xml:space="preserve">
<path opacity="0.15" fill="#E5007D" d="M399.688,85c-1.636,1.789-7.909-4.845-14.021-1.333c-7.833,4.5-16.935-8.25-26.389-1
	c-5.878,4.507-13.327-7.119-28.194,2.833c-8.691,5.818-25.333,7.917-36.083,3.5c-15.242-6.262-9.75-14.583-44.334-1.417
	c-9.214,3.508-7.178-24.495-30.292-15.583c-6.739,2.599-16.941,20.242-26.5,4.875c-3.976-6.392-13.853-13.283-25.375-4.125
	c-9.75,7.75-16-25.625-48,0.5c-8.973,7.325-14,4.875-21.375,6.75c-23.54,5.985-24.528-7.683-29.75-1.75
	c-7.411,8.42-14.625,7.625-23.5,5.875c-8.843-1.744-12.614,2.634-28-2.875C7.75,77.625,1.539,88.59-0.312,85c-4.767-9.25,0-85,0-85
	h400C399.688,0,410.355,73.333,399.688,85z"/>
</svg>
