<?xml version="1.0" encoding="utf-8"?>
<!-- Generator: Adobe Illustrator 16.0.0, SVG Export Plug-In . SVG Version: 6.00 Build 0)  -->
<!DOCTYPE svg PUBLIC "-//W3C//DTD SVG 1.1//EN" "http://www.w3.org/Graphics/SVG/1.1/DTD/svg11.dtd">
<svg version="1.1" id="Layer_1" xmlns="http://www.w3.org/2000/svg" xmlns:xlink="http://www.w3.org/1999/xlink" x="0px" y="0px"
	 width="400px" height="200px" viewBox="0 0 400 200" enable-background="new 0 0 400 200" xml:space="preserve">
<path opacity="0.15" fill="#E5007D" d="M401.118,85c-10.285,16.333-33.921-1.709-38.952,0c-7.014,2.383-6.833,4.5-11.711,3.598
	c-12.475-2.306-21.143-5.082-33.955-2.431c-4.923,1.019-5.334,12.234-32,5.667c-24.304-5.986,1.109-22.845-55.549-1
	c-6.739,2.599-16.392,5.7-25.951-9.667c-3.976-6.392-26.5,5.473-41,8c-31.928,5.562-21.334,0.667-39.382-8.792
	C112.359,74.999,120.833,56.333,102,78c-18.84,21.675-16.167-1.833-31.507,2.75c-7.38,2.205-0.618,8.667-9.493,6.917
	c-8.843-1.744-7.167-5.25-24.667-4.5C32.298,83.339,6,93.333,1.118,85c-12.59-21.491,0-85,0-85h400
	C401.118,0,409.542,71.623,401.118,85z"/>
</svg>
