<?xml version="1.0" encoding="utf-8"?>
<!-- Generator: Adobe Illustrator 16.0.0, SVG Export Plug-In . SVG Version: 6.00 Build 0)  -->
<!DOCTYPE svg PUBLIC "-//W3C//DTD SVG 1.1//EN" "http://www.w3.org/Graphics/SVG/1.1/DTD/svg11.dtd">
<svg version="1.1" id="Layer_1" xmlns="http://www.w3.org/2000/svg" xmlns:xlink="http://www.w3.org/1999/xlink" x="0px" y="0px"
	 width="400px" height="200px" viewBox="0 0 400 200" enable-background="new 0 0 400 200" xml:space="preserve">
<path opacity="0.15" fill="#E5007D" d="M400.118,85c-11.117-7.167-14.117,4.5-21.251,0c-6.266-3.952-12.582,9.667-29.412,3.598
	c-11.934-4.303-17.121,11.402-42.899,5.339c-16.041-3.772-33.222-9.771-39.271-5.938c-8.327,5.278-16.22-6.078-39.334,2.833
	c-6.739,2.599-19.333,15.542-28.893,0.175c-3.976-6.392-30.341-8.672-45.059-8.508c-11.25,0.125-12.882-10.375-32.382-2.125
	c-10.667,4.513-7.396-6.873-16.25-7.375C81.118,71.625,115,88,76,91.25c-7.677,0.64-3.836-23.621-10-17
	c-6.75,7.25-14.75,10.5-32.25,11.25C29.715,85.673,8,98.401,0.118,85c-5.275-8.97,0-85,0-85h400
	C400.118,0,413.404,93.565,400.118,85z"/>
</svg>
