<?xml version="1.0" encoding="utf-8"?>
<!-- Generator: Adobe Illustrator 16.0.0, SVG Export Plug-In . SVG Version: 6.00 Build 0)  -->
<!DOCTYPE svg PUBLIC "-//W3C//DTD SVG 1.1//EN" "http://www.w3.org/Graphics/SVG/1.1/DTD/svg11.dtd">
<svg version="1.1" id="Layer_1" xmlns="http://www.w3.org/2000/svg" xmlns:xlink="http://www.w3.org/1999/xlink" x="0px" y="0px"
	 width="400px" height="200px" viewBox="0 0 400 200" enable-background="new 0 0 400 200" xml:space="preserve">
<path opacity="0.15" fill="#E5007D" d="M401.118,85c-15.952,7.333-27.087-0.542-32.118,1.167c-7.014,2.383-5.108-9.381-18.545,2.432
	c-5.955,5.235-30.149,2.402-42.899,5.339c-16.058,3.7-20.389-9.438-39.271-5.938c-9.694,1.797-12.588-8.078-35.702,0.833
	c-6.739,2.599-20.5,14.5-32.524,2.175c-5.256-5.388-3.937-8.848-18.654-8.684c-11.25,0.125-2.237-2.241-21.737,6.009
	C149,92.847,134.855,70.502,126.001,70C101.751,68.625,96.5,81.833,72.5,80.833c-7.695-0.321,4.208-6.583-4.667-8.333
	c-8.843-1.744-0.5,11.75-18,12.5C45.798,85.173,10,100.833,1.118,85c-5.091-9.076,0-85,0-85h400
	C401.118,0,415.481,78.397,401.118,85z"/>
</svg>
