<?xml version="1.0" encoding="utf-8"?>
<!-- Generator: Adobe Illustrator 16.0.0, SVG Export Plug-In . SVG Version: 6.00 Build 0)  -->
<!DOCTYPE svg PUBLIC "-//W3C//DTD SVG 1.1//EN" "http://www.w3.org/Graphics/SVG/1.1/DTD/svg11.dtd">
<svg version="1.1" id="Capa_1" xmlns="http://www.w3.org/2000/svg" xmlns:xlink="http://www.w3.org/1999/xlink" x="0px" y="0px"
	 width="200px" height="200px" viewBox="0 0 200 200" enable-background="new 0 0 200 200" xml:space="preserve">
<g>
	<path fill="#FAC832" d="M171.943,62.021v116.685c0,8.963-7.307,16.27-16.27,16.27H44.378c-8.964,0-16.27-7.307-16.27-16.27V21.295
		c0-8.964,7.306-16.27,16.27-16.27h67.824V51.14c0,6.011,4.87,10.829,10.829,10.829h48.912V62.021L171.943,62.021z M140.078,170.052
		v-42.384h-15.182v42.384H140.078z M107.591,170.052V140.57h-15.13v29.481H107.591z M75.155,170.052v-16.373H60.026v16.373H75.155z"
		/>
	<path fill="#FAC832" d="M171.943,59.845v2.176h-48.86c-6.011,0-10.829-4.87-10.829-10.829V5.078h1.348L171.943,59.845z"/>
</g>
<g>
	<rect x="124.896" y="127.668" fill="#F05064" width="15.129" height="42.384"/>
	<rect x="92.461" y="140.621" fill="#F05064" width="15.13" height="29.482"/>
	<rect x="59.974" y="153.679" fill="#F05064" width="15.129" height="16.373"/>
</g>
<path d="M44.378,200h111.243c11.814,0,21.555-9.482,21.555-21.295V59.845c0-1.451-0.621-2.798-1.709-3.783L117.176,1.347
	C116.191,0.466,114.896,0,113.602,0H44.378C32.565,0,22.824,9.482,22.824,21.295v157.41C22.824,190.518,32.565,200,44.378,200z
	 M117.643,15.7l43.523,41.295h-38.083c-3.108,0-5.44-2.694-5.44-5.855V15.7z M33.187,21.295c0-6.114,5.078-10.933,11.192-10.933
	h62.901V51.14c0,8.86,6.995,16.218,15.804,16.218h43.782v111.348c0,6.113-5.078,10.932-11.191,10.932H44.378
	c-6.114,0-11.192-4.818-11.192-10.932V21.295z"/>
<path d="M55.259,37.306h32.539c2.85,0,5.182-2.332,5.182-5.181c0-2.85-2.332-5.182-5.182-5.182H55.259
	c-2.85,0-5.182,2.332-5.182,5.182C50.078,34.974,52.409,37.306,55.259,37.306z"/>
<path d="M55.259,64.249h32.539c2.85,0,5.182-2.332,5.182-5.181s-2.332-5.181-5.182-5.181H55.259c-2.85,0-5.182,2.332-5.182,5.181
	S52.409,64.249,55.259,64.249z"/>
<path d="M107.279,135.233H92.254c-2.85,0-5.181,2.331-5.181,5.181v29.534c0,2.85,2.332,5.181,5.181,5.181h15.025
	c2.85,0,5.182-2.331,5.182-5.181v-29.534C112.461,137.564,110.129,135.233,107.279,135.233z M102.617,164.767h-5.182v-19.171h5.182
	V164.767z"/>
<path d="M139.922,122.279h-15.025c-2.85,0-5.182,2.332-5.182,5.182v42.487c0,2.85,2.332,5.181,5.182,5.181h15.025
	c2.85,0,5.182-2.331,5.182-5.181v-42.487C145.104,124.611,142.771,122.279,139.922,122.279z M134.74,164.767h-4.662v-32.124h4.662
	V164.767z"/>
<path d="M75.155,148.705H60.129c-2.85,0-5.181,2.331-5.181,5.182v16.58c0,2.85,2.332,5.181,5.181,5.181h15.026
	c2.85,0,5.182-2.331,5.182-5.181v-16.58C80.337,151.036,78.005,148.705,75.155,148.705z M69.974,164.767h-4.663v-5.699h4.663
	V164.767z"/>
<path d="M77.643,92.228l-24.974,23.99c-2.073,1.969-2.125,5.284-0.155,7.306c1.036,1.036,2.383,1.605,3.73,1.605
	c1.295,0,2.59-0.466,3.575-1.45l21.554-20.673l19.74,17.357c1.866,1.657,4.664,1.709,6.633,0.207l30-23.42l-0.829,11.088
	c-0.207,2.85,1.917,5.337,4.767,5.544c0.156,0,0.26,0,0.415,0c2.694,0,4.974-2.072,5.181-4.767l1.762-22.643
	c0.104-1.399-0.362-2.746-1.243-3.782c-0.881-1.037-2.177-1.71-3.575-1.762l-24.404-1.762c-2.85-0.207-5.336,1.917-5.544,4.819
	c-0.207,2.901,1.917,5.336,4.819,5.544l10.828,0.777l-25.077,19.586L84.741,92.125C82.668,90.311,79.611,90.363,77.643,92.228z"/>
</svg>
