<?xml version="1.0" encoding="utf-8"?>
<!-- Generator: Adobe Illustrator 16.0.0, SVG Export Plug-In . SVG Version: 6.00 Build 0)  -->
<!DOCTYPE svg PUBLIC "-//W3C//DTD SVG 1.1//EN" "http://www.w3.org/Graphics/SVG/1.1/DTD/svg11.dtd">
<svg version="1.1" id="Capa_1" xmlns="http://www.w3.org/2000/svg" xmlns:xlink="http://www.w3.org/1999/xlink" x="0px" y="0px"
	 width="200px" height="200px" viewBox="0 0 200 200" enable-background="new 0 0 200 200" xml:space="preserve">
<path fill="#FAC832" d="M168.623,33.56v15.847h-8.391H39.725h-8.39V33.56c0-4.661,3.771-8.475,8.475-8.475h9.322h101.695h9.322
	C164.81,25.085,168.623,28.898,168.623,33.56z"/>
<g>
	<path fill="#F05064" d="M160.232,49.576V195.89h-38.686v-0.423V163.56c0-4.704-3.771-8.475-8.475-8.475H86.419
		c-4.703,0-8.475,3.771-8.475,8.475v31.907v0.423H39.682V49.576v-0.169h120.55V49.576L160.232,49.576z"/>
	<path fill="#F05064" d="M150.826,24.704v0.381H49.131v-0.381V12.627c0-4.661,3.771-8.475,8.475-8.475h84.746
		c4.661,0,8.475,3.814,8.475,8.475V24.704z"/>
</g>
<path fill="#FAC832" d="M121.547,195.467v0.423h-43.56v-0.423V163.56c0-4.704,3.771-8.475,8.475-8.475h26.652
	c4.704,0,8.475,3.771,8.475,8.475v31.907H121.547z"/>
<path d="M31.335,53.813h4.237V195.89c0,2.331,1.779,4.11,4.152,4.11h120.551c2.33,0,4.152-1.737,4.152-4.11V53.813h4.237
	c2.331,0,4.237-2.076,4.237-4.407V33.56c0-6.992-5.721-12.797-12.712-12.797h-5.085v-8.136C155.105,5.636,149.428,0,142.395,0
	H57.606c-6.992,0-12.712,5.593-12.712,12.627v8.136h-5.085c-6.991,0-12.711,5.805-12.711,12.797v15.847
	C27.098,51.737,29.004,53.813,31.335,53.813z M117.352,191.525H82.182V163.56c0-2.331,1.949-4.237,4.28-4.237h26.652
	c2.331,0,4.28,1.906,4.28,4.237v27.966H117.352z M155.911,191.525h-30.085V163.56c0-6.991-5.721-12.712-12.754-12.712H86.419
	c-6.992,0-12.754,5.721-12.754,12.712v27.966H44.004V53.813h111.865v137.712H155.911z M53.369,12.627
	c0-2.331,1.907-4.152,4.237-4.152h84.746c2.33,0,4.237,1.822,4.237,4.152v8.136h-93.22V12.627z M35.572,33.56
	c0-2.331,1.907-4.322,4.237-4.322h120.339c2.33,0,4.237,1.992,4.237,4.322v11.779H35.572V33.56z"/>
<path d="M114.004,117.797h19.025c2.331,0,4.238-1.907,4.238-4.237c0-2.331-1.907-4.237-4.238-4.237h-19.025
	c-2.33,0-4.236,1.906-4.236,4.237C109.768,115.89,111.674,117.797,114.004,117.797z"/>
<path d="M114.004,138.982h19.025c2.331,0,4.238-1.906,4.238-4.236c0-2.331-1.907-4.238-4.238-4.238h-19.025
	c-2.33,0-4.236,1.907-4.236,4.238C109.768,137.076,111.674,138.982,114.004,138.982z"/>
<path d="M66.928,117.797h19.026c2.33,0,4.237-1.907,4.237-4.237c0-2.331-1.907-4.237-4.237-4.237H66.928
	c-2.33,0-4.237,1.906-4.237,4.237C62.691,115.89,64.555,117.797,66.928,117.797z"/>
<path d="M85.954,130.085H66.928c-2.33,0-4.237,1.907-4.237,4.237s1.907,4.237,4.237,4.237h19.026c2.33,0,4.237-1.907,4.237-4.237
	S88.284,130.085,85.954,130.085z"/>
<path d="M114.004,96.61h19.025c2.331,0,4.238-1.907,4.238-4.237s-1.907-4.237-4.238-4.237h-19.025c-2.33,0-4.236,1.907-4.236,4.237
	S111.674,96.61,114.004,96.61z"/>
<path d="M66.928,96.61h19.026c2.33,0,4.237-1.907,4.237-4.237s-1.907-4.237-4.237-4.237H66.928c-2.33,0-4.237,1.907-4.237,4.237
	S64.555,96.61,66.928,96.61z"/>
<path d="M114.004,75.848h19.025c2.331,0,4.238-1.907,4.238-4.237c0-2.331-1.907-4.237-4.238-4.237h-19.025
	c-2.33,0-4.236,1.907-4.236,4.237C109.768,73.94,111.674,75.848,114.004,75.848z"/>
<path d="M66.928,75.848h19.026c2.33,0,4.237-1.907,4.237-4.237c0-2.331-1.907-4.237-4.237-4.237H66.928
	c-2.33,0-4.237,1.907-4.237,4.237C62.691,73.94,64.555,75.848,66.928,75.848z"/>
</svg>
