<?xml version="1.0" encoding="utf-8"?>
<!-- Generator: Adobe Illustrator 16.0.0, SVG Export Plug-In . SVG Version: 6.00 Build 0)  -->
<!DOCTYPE svg PUBLIC "-//W3C//DTD SVG 1.1//EN" "http://www.w3.org/Graphics/SVG/1.1/DTD/svg11.dtd">
<svg version="1.1" id="Capa_1" xmlns="http://www.w3.org/2000/svg" xmlns:xlink="http://www.w3.org/1999/xlink" x="0px" y="0px"
	 width="200px" height="200px" viewBox="0 0 200 200" enable-background="new 0 0 200 200" xml:space="preserve">
<rect x="147.631" y="145.713" fill="#F05064" width="33.767" height="41.701"/>
<rect x="147.631" y="110.447" fill="#FAC832" width="33.767" height="35.266"/>
<rect x="89.795" y="119.22" fill="#F05064" width="33.768" height="68.239"/>
<rect x="89.795" y="83.954" fill="#FAC832" width="33.768" height="35.266"/>
<rect x="31.916" y="80.604" fill="#F05064" width="33.767" height="106.855"/>
<rect x="31.916" y="45.338" fill="#FAC832" width="33.767" height="35.266"/>
<path d="M195.636,183.227h-9.61v-72.779c0-2.424-2.159-4.363-4.628-4.363h-33.767c-2.425,0-4.364,1.939-4.364,4.363v72.779h-15.429
	V83.954c0-2.424-1.852-4.32-4.275-4.32H89.795c-2.424,0-4.276,1.896-4.276,4.32v99.272H70.09V45.338
	c0-2.424-1.939-4.497-4.364-4.497H31.959c-2.424,0-4.628,2.028-4.628,4.497v137.888H15.12c-3.438,0-6.304-2.997-6.304-6.436V12.365
	c0-2.425-1.984-4.408-4.408-4.408S0,9.94,0,12.365v164.426c0,8.287,6.833,15.252,15.12,15.252h16.795h33.767h24.069h33.767h24.068
	h33.768h14.238c2.424,0,4.408-1.983,4.408-4.408C200,185.211,198.061,183.227,195.636,183.227z M177.209,114.9v26.449h-25.126V114.9
	H177.209z M119.021,88.451v26.45H94.335v-26.45H119.021z M61.274,49.658v26.449H36.147V49.658H61.274z M36.147,84.924h25.126v98.303
	H36.147V84.924z M94.335,123.717h24.686v59.51H94.335V123.717z M152.083,150.165h25.126v33.062h-25.126V150.165z"/>
</svg>
