<?xml version="1.0" encoding="utf-8"?>
<!-- Generator: Adobe Illustrator 16.0.0, SVG Export Plug-In . SVG Version: 6.00 Build 0)  -->
<!DOCTYPE svg PUBLIC "-//W3C//DTD SVG 1.1//EN" "http://www.w3.org/Graphics/SVG/1.1/DTD/svg11.dtd">
<svg version="1.1" id="Capa_1" xmlns="http://www.w3.org/2000/svg" xmlns:xlink="http://www.w3.org/1999/xlink" x="0px" y="0px"
	 width="200px" height="200px" viewBox="0 0 200 200" enable-background="new 0 0 200 200" xml:space="preserve">
<g>
	<g>
		<path fill="#FAC832" d="M191.988,51.615h-91.402h-3.064c-2.632,0-4.785-2.151-4.785-4.785V36.781l0,0l0,0h107.219l0,0l0,0V46.83
			c0,2.634-2.15,4.785-4.784,4.785H191.988L191.988,51.615z"/>
		<path fill="#FAC832" d="M189.667,19.339l10.29,17.442H92.76l12.395-17.755c0.887-1.292,2.369-2.032,3.923-2.032h9.764h0.098
			v10.765h54.863V16.994h0.097h11.679C187.253,16.994,188.806,17.876,189.667,19.339z"/>
	</g>
	<path fill="#F05064" d="M191.988,51.615v56.064h-8.758v-0.242V65.832h-22.18v41.61v0.24h-60.465V51.736v-0.121H191.988z
		 M152.004,94.28V66.068h-42.542V94.28H152.004L152.004,94.28z"/>
	<polygon fill="#FAC832" points="183.23,107.438 183.23,107.68 161.051,107.68 161.051,107.438 161.051,65.832 183.23,65.832 	"/>
	<polygon fill="#F05064" points="173.778,16.994 173.778,27.759 118.937,27.759 118.937,16.994 118.937,2.398 173.778,2.398 	"/>
	<rect x="109.462" y="66.068" fill="#FAC832" width="42.542" height="28.211"/>
	<path d="M154.494,66.045c0-1.318-1.075-2.394-2.394-2.394h-42.59c-1.316,0-2.395,1.077-2.395,2.394V94.28
		c0,1.316,1.078,2.393,2.395,2.393h42.59c1.318,0,2.394-1.076,2.394-2.393V66.045z M111.901,68.439h37.805v23.45h-37.805V68.439z"/>
	<path d="M202.349,36.662c0-0.073,0-0.145-0.023-0.192v-0.022c0-0.074-0.027-0.144-0.047-0.215l0,0
		c-0.047-0.242-0.146-0.455-0.264-0.648l0,0L191.7,18.143c-1.294-2.178-3.662-3.521-6.172-3.521h-9.261V2.397
		c0-1.32-1.148-2.397-2.487-2.397h-54.844c-1.316,0-2.487,1.081-2.487,2.397v12.2h-7.396c-2.344,0-4.521,1.149-5.86,3.066
		L90.846,35.417l0,0c-0.239,0.144-0.191,0.287-0.264,0.431c-0.119,0.29-0.214,0.599-0.214,0.933V46.83
		c0,3.947,3.205,7.252,7.153,7.252h0.742v53.597c0,1.314,1.004,2.395,2.321,2.395h91.403c1.316,0,2.465-1.08,2.465-2.395V54.083
		h0.742c3.948,0,7.151-3.275,7.151-7.252V36.781c0-0.024,0-0.047,0-0.071C202.347,36.687,202.349,36.687,202.349,36.662z
		 M121.234,4.791h50.248v20.575h-50.248V4.791z M107.095,20.438c0.453-0.646,1.172-1.052,1.959-1.052h7.396v8.375
		c0,1.318,1.148,2.396,2.487,2.396h54.864c1.318,0,2.486-1.078,2.486-2.396v-8.375h9.284c0.838,0,1.63,0.481,2.061,1.219
		l8.16,13.857H97.329L107.095,20.438z M180.812,105.285h-17.465V68.197h17.465V105.285z M189.667,105.285H185.6V65.833
		c0-1.318-1.054-2.418-2.367-2.418h-22.182c-1.315,0-2.487,1.101-2.487,2.418v39.457h-55.513V54.083h86.616V105.285L189.667,105.285
		z M195.194,49.295H97.521c-1.316,0-2.37-1.149-2.37-2.465v-7.585h102.41v7.585C197.562,48.147,196.511,49.295,195.194,49.295z"/>
</g>
<g>
	<g>
		<path fill="#FAC832" d="M101.613,88.734H10.215H7.15c-2.633,0-4.787-2.152-4.787-4.785v-10.05l0,0l0,0h107.219l0,0l0,0v10.05
			c0,2.633-2.149,4.785-4.783,4.785H101.613L101.613,88.734z"/>
		<path fill="#FAC832" d="M99.29,56.459l10.293,17.44H2.387l12.396-17.757c0.883-1.288,2.368-2.03,3.924-2.03h9.764h0.097v10.765
			h54.863V54.113h0.094h11.679C96.88,54.113,98.436,54.995,99.29,56.459z"/>
	</g>
	<path fill="#F05064" d="M101.613,88.734v56.062h-8.754v-0.236V102.95H70.681v41.609v0.236H10.215V88.855v-0.121H101.613z
		 M61.632,131.399v-28.212H19.091v28.212H61.632z"/>
	<polygon fill="#FAC832" points="92.859,144.56 92.859,144.796 70.681,144.796 70.681,144.56 70.681,102.95 92.859,102.95 	"/>
	<polygon fill="#F05064" points="83.408,54.113 83.408,64.877 28.567,64.877 28.567,54.113 28.567,39.515 83.408,39.515 	"/>
	<rect x="19.091" y="103.188" fill="#FAC832" width="42.541" height="28.212"/>
	<path d="M64.12,103.164c0-1.318-1.073-2.396-2.393-2.396h-42.59c-1.317,0-2.393,1.079-2.393,2.396v28.235
		c0,1.316,1.076,2.39,2.393,2.39h42.59c1.319,0,2.393-1.073,2.393-2.39V103.164z M21.53,105.559h37.805v23.446H21.53V105.559z"/>
	<path d="M111.976,73.781c0-0.073,0-0.144-0.021-0.191v-0.026c0-0.073-0.029-0.143-0.049-0.216l0,0
		c-0.049-0.239-0.147-0.454-0.263-0.647l0,0l-10.314-17.442c-1.293-2.177-3.661-3.517-6.171-3.517h-9.259V39.513
		c0-1.317-1.151-2.392-2.487-2.392H28.569c-1.319,0-2.491,1.075-2.491,2.392v12.205h-7.395c-2.345,0-4.52,1.15-5.86,3.065
		L0.474,72.536l0,0c-0.238,0.144-0.191,0.288-0.26,0.431C0.094,73.255,0,73.563,0,73.898v10.05c0,3.95,3.202,7.252,7.152,7.252
		h0.743v53.597c0,1.316,1.004,2.396,2.322,2.396h91.399c1.319,0,2.466-1.079,2.466-2.396V91.203h0.742
		c3.948,0,7.152-3.275,7.152-7.253v-10.05c0-0.021,0-0.045,0-0.069C111.977,73.805,111.976,73.805,111.976,73.781z M30.863,41.906
		h50.25v20.578h-50.25V41.906z M16.721,57.557c0.454-0.646,1.172-1.055,1.962-1.055h7.392v8.376c0,1.318,1.152,2.396,2.488,2.396
		h54.868c1.316,0,2.486-1.078,2.486-2.396v-8.376h9.285c0.837,0,1.626,0.481,2.061,1.22l8.158,13.858H6.96L16.721,57.557z
		 M90.444,142.406H72.977v-37.091h17.467V142.406z M99.29,142.406h-4.064V102.95c0-1.318-1.052-2.418-2.367-2.418H70.681
		c-1.317,0-2.492,1.1-2.492,2.418v39.456H12.676V91.203h86.621v51.206H99.29V142.406z M104.824,86.413H7.151
		c-1.316,0-2.366-1.147-2.366-2.465v-7.583h102.409v7.583C107.192,85.267,106.138,86.413,104.824,86.413z"/>
</g>
<g>
	<g>
		<path fill="#FAC832" d="M151.138,141.548H59.734H56.67c-2.632,0-4.786-2.154-4.786-4.785V126.71l0,0l0,0h107.22l0,0l0,0v10.053
			c0,2.631-2.152,4.785-4.787,4.785H151.138L151.138,141.548z"/>
		<path fill="#FAC832" d="M148.815,109.271l10.289,17.439H51.91l12.396-17.755c0.885-1.291,2.367-2.033,3.923-2.033h9.763h0.097
			v10.769h54.864v-10.769h0.096h11.678C146.402,106.924,147.956,107.807,148.815,109.271z"/>
	</g>
	<path fill="#F05064" d="M151.138,141.548v56.061h-8.759v-0.239v-41.607H120.2v41.607v0.239H59.734v-55.941v-0.119H151.138z
		 M111.151,184.209v-28.212H68.608v28.21h42.543V184.209z"/>
	<polygon fill="#FAC832" points="142.379,197.369 142.379,197.606 120.199,197.606 120.199,197.369 120.199,155.762 
		142.379,155.762 	"/>
	<polygon fill="#F05064" points="132.928,106.924 132.928,117.69 78.085,117.69 78.085,106.924 78.085,92.33 132.928,92.33 	"/>
	<rect x="68.608" y="156.001" fill="#FAC832" width="42.543" height="28.206"/>
	<path d="M113.641,155.976c0-1.319-1.074-2.392-2.395-2.392H68.659c-1.317,0-2.393,1.072-2.393,2.392v28.233
		c0,1.317,1.076,2.396,2.393,2.396h42.59c1.318,0,2.394-1.078,2.394-2.396v-28.233H113.641z M71.05,158.368h37.805v23.448H71.05
		V158.368z"/>
	<path d="M161.497,126.592c0-0.073,0-0.143-0.023-0.191v-0.027c0-0.071-0.028-0.143-0.051-0.213l0,0
		c-0.044-0.24-0.142-0.457-0.258-0.65l0,0l-10.317-17.441c-1.289-2.176-3.66-3.518-6.172-3.518h-9.26V92.326
		c0-1.319-1.15-2.394-2.486-2.394H78.086c-1.317,0-2.488,1.077-2.488,2.394v12.201h-7.394c-2.344,0-4.521,1.147-5.863,3.064
		l-12.348,17.755l0,0c-0.24,0.144-0.191,0.289-0.265,0.432c-0.119,0.286-0.214,0.593-0.214,0.932v10.049
		c0,3.95,3.204,7.252,7.154,7.252h0.742v53.596c0,1.315,1.002,2.394,2.32,2.394h91.404c1.314,0,2.462-1.078,2.462-2.394v-53.596
		h0.743c3.949,0,7.152-3.275,7.152-7.25V126.71c0-0.024,0-0.047,0-0.072C161.493,126.616,161.497,126.616,161.497,126.592z
		 M80.382,94.72h50.25v20.577h-50.25V94.72z M66.241,110.37c0.455-0.649,1.173-1.055,1.962-1.055h7.395v8.377
		c0,1.316,1.148,2.391,2.488,2.391h54.865c1.315,0,2.486-1.076,2.486-2.391v-8.377h9.286c0.836,0,1.628,0.479,2.059,1.22
		l8.162,13.854H56.479L66.241,110.37z M139.962,195.218h-17.465v-37.091h17.465V195.218z M148.815,195.218h-4.068v-39.456
		c0-1.319-1.053-2.418-2.368-2.418H120.2c-1.316,0-2.489,1.101-2.489,2.418v39.456H62.199v-51.207h86.617V195.218L148.815,195.218z
		 M154.342,139.225H56.67c-1.316,0-2.371-1.147-2.371-2.462v-7.583h102.408v7.583C156.712,138.077,155.66,139.225,154.342,139.225z"
		/>
</g>
</svg>
