<?xml version="1.0" encoding="utf-8"?>
<!-- Generator: Adobe Illustrator 16.0.0, SVG Export Plug-In . SVG Version: 6.00 Build 0)  -->
<!DOCTYPE svg PUBLIC "-//W3C//DTD SVG 1.1//EN" "http://www.w3.org/Graphics/SVG/1.1/DTD/svg11.dtd">
<svg version="1.1" id="Capa_1" xmlns="http://www.w3.org/2000/svg" xmlns:xlink="http://www.w3.org/1999/xlink" x="0px" y="0px"
	 width="200px" height="200px" viewBox="0 0 200 200" enable-background="new 0 0 200 200" xml:space="preserve">
<g>
	<path fill="#FAC832" d="M181.496,93.889H18.248h-5.47c-4.701,0-8.547-3.846-8.547-8.547V67.393l0,0l0,0h191.496l0,0l0,0v17.949
		c0,4.701-3.846,8.547-8.547,8.547H181.496z"/>
	<path fill="#FAC832" d="M177.351,36.239l18.376,31.154H4.273L26.41,35.684c1.581-2.308,4.231-3.632,7.009-3.632h17.436h0.171
		v19.231h97.992V32.051h0.17h20.855C173.034,32.051,175.812,33.632,177.351,36.239z"/>
</g>
<path fill="#F05064" d="M181.496,93.889v100.129h-15.642v-0.428v-74.316h-39.615v74.316v0.428H18.248V94.103v-0.214H181.496z
	 M110.086,170.086v-50.385H34.103v50.385H110.086z"/>
<polygon fill="#FAC832" points="165.854,193.59 165.854,194.018 126.239,194.018 126.239,193.59 126.239,119.273 165.854,119.273 
	"/>
<polygon fill="#F05064" points="148.975,32.051 148.975,51.282 51.025,51.282 51.025,32.051 51.025,5.983 148.975,5.983 "/>
<rect x="34.103" y="119.701" fill="#FAC832" width="75.983" height="50.385"/>
<path d="M114.529,119.658c0-2.351-1.922-4.273-4.273-4.273H34.188c-2.351,0-4.273,1.923-4.273,4.273v50.428
	c0,2.35,1.923,4.273,4.273,4.273h76.068c2.352,0,4.273-1.924,4.273-4.273V119.658z M38.461,123.932h67.521v41.881H38.461V123.932z"
	/>
<path d="M200,67.18c0-0.128,0-0.257-0.043-0.342v-0.042c0-0.128-0.043-0.256-0.086-0.385l0,0c-0.085-0.427-0.256-0.812-0.469-1.154
	l0,0l-18.42-31.154c-2.307-3.889-6.538-6.282-11.025-6.282h-16.538V5.983c0-2.351-2.052-4.273-4.444-4.273H51.025
	c-2.35,0-4.444,1.923-4.444,4.273v21.795H33.376c-4.188,0-8.077,2.051-10.47,5.47L0.854,64.957l0,0
	c-0.427,0.257-0.342,0.513-0.47,0.77C0.171,66.239,0,66.795,0,67.393v17.949c0,7.051,5.727,12.949,12.778,12.949h1.325v95.727
	c0,2.35,1.795,4.273,4.146,4.273h163.248c2.35,0,4.401-1.924,4.401-4.273V98.291h1.325c7.051,0,12.777-5.854,12.777-12.949V67.393
	c0-0.042,0-0.085,0-0.128C200,67.222,200,67.222,200,67.18z M55.128,10.256h89.743v36.752H55.128V10.256z M29.872,38.205
	c0.812-1.154,2.094-1.88,3.504-1.88h13.205v14.958c0,2.35,2.051,4.273,4.444,4.273h97.992c2.35,0,4.443-1.923,4.443-4.273V36.325
	h16.582c1.496,0,2.906,0.855,3.675,2.18l14.573,24.744H12.436L29.872,38.205z M161.539,189.744h-31.197v-66.24h31.197V189.744z
	 M177.351,189.744h-7.265v-70.471c0-2.351-1.881-4.316-4.231-4.316h-39.615c-2.351,0-4.444,1.966-4.444,4.316v70.471H22.649V98.291
	h154.701V189.744z M187.223,89.744H12.778c-2.351,0-4.231-2.051-4.231-4.402V71.795h182.906v13.547
	C191.453,87.692,189.572,89.744,187.223,89.744z"/>
</svg>
