<?xml version="1.0" encoding="utf-8"?>
<!-- Generator: Adobe Illustrator 16.0.0, SVG Export Plug-In . SVG Version: 6.00 Build 0)  -->
<!DOCTYPE svg PUBLIC "-//W3C//DTD SVG 1.1//EN" "http://www.w3.org/Graphics/SVG/1.1/DTD/svg11.dtd">
<svg version="1.1" id="Capa_1" xmlns="http://www.w3.org/2000/svg" xmlns:xlink="http://www.w3.org/1999/xlink" x="0px" y="0px"
	 width="200px" height="200px" viewBox="0 0 200 200" enable-background="new 0 0 200 200" xml:space="preserve">
<g>
	<polygon fill="#FAC832" points="195.763,67.061 195.763,120.45 172.373,120.45 138.348,120.45 114.957,120.45 114.957,67.061 	"/>
	<rect x="138.348" y="120.45" fill="#FAC832" width="34.025" height="12.458"/>
</g>
<g>
	<polygon fill="#F05064" points="85.042,67.061 85.042,120.45 61.652,120.45 27.627,120.45 4.237,120.45 4.237,67.061 	"/>
	<rect x="27.627" y="120.45" fill="#F05064" width="34.025" height="12.458"/>
</g>
<path d="M74.025,133.035c0-2.33-1.907-4.237-4.237-4.237h-3.687v-4.237h18.941c2.331,0,4.364-1.779,4.364-4.11v-53.39
	c0-2.331-1.992-4.364-4.364-4.364H4.237C1.907,62.696,0,64.73,0,67.061v53.39c0,2.331,1.907,4.11,4.237,4.11h19.068v4.237h-3.771
	c-2.33,0-4.237,1.907-4.237,4.237s1.907,4.237,4.237,4.237h50.254C72.119,137.272,74.025,135.365,74.025,133.035z M8.475,71.171
	h72.458v44.915H8.475V71.171z M31.78,124.561h25.847v4.237H31.78V124.561z"/>
<path d="M195.763,62.696h-80.806c-2.33,0-4.363,2.034-4.363,4.364v53.39c0,2.331,1.991,4.11,4.363,4.11h18.941v4.237h-3.687
	c-2.331,0-4.237,1.907-4.237,4.237s1.906,4.237,4.237,4.237h50.255c2.33,0,4.236-1.907,4.236-4.237s-1.906-4.237-4.236-4.237h-3.771
	v-4.237h19.067c2.331,0,4.237-1.779,4.237-4.11v-53.39C200,64.73,198.094,62.696,195.763,62.696z M168.221,128.798h-25.848v-4.237
	h25.848V128.798z M191.525,116.086h-72.457V71.171h72.457V116.086z"/>
<path d="M0,34.306c0,2.331,1.907,4.237,4.237,4.237h122.118l-4.491,4.534c-1.652,1.652-1.652,4.364,0,6.017
	c0.848,0.847,1.907,1.271,3.009,1.271s2.16-0.424,3.008-1.229l11.865-11.822c1.652-1.653,1.652-4.322,0-5.975l-11.865-11.865
	c-1.652-1.652-4.321-1.652-5.975,0c-1.652,1.653-1.652,4.28,0,5.933l4.746,4.661H4.237C1.907,30.069,0,31.976,0,34.306z"/>
<path d="M195.763,161.425H73.644l4.492-4.534c1.652-1.652,1.652-4.363,0-6.017c-1.653-1.652-4.322-1.652-5.975,0l-11.865,11.822
	c-1.652,1.652-1.652,4.321,0,5.975l11.865,11.864c0.847,0.848,1.907,1.229,3.008,1.229s2.161-0.424,3.008-1.229
	c1.653-1.652,1.653-4.279,0-5.932l-4.83-4.704h122.415c2.331,0,4.237-1.907,4.237-4.237S198.094,161.425,195.763,161.425z"/>
</svg>
